<?xml version="1.0" standalone="no"?>
<!DOCTYPE svg PUBLIC "-//W3C//DTD SVG 20010904//EN"
 "http://www.w3.org/TR/2001/REC-SVG-20010904/DTD/svg10.dtd">
<svg version="1.0" xmlns="http://www.w3.org/2000/svg"
 width="920.000000pt" height="752.000000pt" viewBox="0 0 920.000000 752.000000"
 preserveAspectRatio="xMidYMid meet">

<g transform="translate(0.000000,752.000000) scale(0.100000,-0.100000)"
fill="#000000" stroke="none">
<path d="M1426 7485 c-4 -19 -17 -47 -30 -62 -12 -15 -28 -42 -35 -59 -7 -18
-21 -41 -32 -53 -11 -12 -16 -21 -10 -21 5 0 -4 -26 -20 -57 -16 -32 -27 -64
-24 -71 3 -8 -10 -46 -29 -86 -18 -39 -43 -100 -55 -136 -12 -36 -26 -73 -31
-82 -6 -10 -10 -24 -10 -33 0 -18 -45 -156 -67 -205 -8 -19 -30 -66 -48 -105
-64 -134 -73 -167 -80 -276 -5 -75 -4 -109 4 -113 7 -5 14 4 17 23 9 45 25 27
23 -25 -2 -33 2 -49 19 -67 31 -33 27 -82 -5 -55 -11 9 -12 7 -7 -8 14 -43 28
-64 45 -64 24 0 27 -29 12 -130 -8 -54 -9 -88 -3 -94 6 -6 10 -20 10 -33 0
-14 6 -23 15 -23 10 0 15 -10 15 -31 0 -20 -4 -28 -11 -23 -13 7 -10 -15 12
-126 7 -36 15 -57 17 -46 6 30 44 -63 39 -97 -3 -20 0 -26 10 -23 18 7 36 -40
28 -75 -5 -22 -2 -31 14 -41 12 -7 21 -20 21 -28 0 -8 7 -28 15 -44 8 -15 15
-35 15 -43 0 -8 4 -12 9 -8 5 3 13 -5 17 -17 3 -12 13 -28 20 -35 7 -8 18 -33
24 -56 6 -23 15 -50 21 -60 5 -10 7 -22 4 -26 -2 -5 2 -14 10 -21 18 -15 20
-30 4 -30 -22 0 -72 -66 -90 -119 -20 -57 -20 -78 6 -221 33 -186 99 -345 224
-540 58 -90 113 -201 131 -265 10 -33 32 -112 50 -175 54 -194 79 -258 173
-440 82 -160 110 -203 174 -277 13 -14 23 -31 23 -38 0 -7 9 -20 20 -30 12
-11 18 -26 15 -37 -15 -55 -16 -63 -6 -48 8 12 11 8 11 -17 0 -18 7 -51 16
-73 9 -22 13 -51 10 -64 -4 -15 -1 -26 6 -28 7 -3 15 -40 20 -98 5 -68 11 -96
23 -102 9 -5 15 -23 15 -42 0 -35 24 -68 32 -45 6 18 28 1 28 -21 0 -10 -5
-20 -12 -22 -8 -3 -7 -11 5 -28 9 -14 17 -41 17 -61 0 -36 0 -36 -72 -62 -40
-14 -91 -31 -113 -38 -94 -28 -160 -52 -171 -64 -43 -43 -111 -281 -134 -470
-6 -49 -17 -110 -25 -135 -8 -25 -24 -79 -34 -121 -11 -42 -28 -96 -40 -120
-35 -78 -51 -121 -51 -140 0 -11 -18 -52 -39 -92 -22 -39 -47 -97 -56 -127
-28 -95 -67 -163 -106 -182 -29 -15 -134 -43 -349 -93 -118 -27 -518 -159
-640 -210 -101 -42 -244 -106 -335 -150 l-50 -23 2364 -1 2364 -1 25 27 c14
15 36 28 49 29 26 1 39 -11 23 -21 -6 -4 -7 -11 -4 -17 4 -7 2 -8 -5 -4 -6 4
-9 11 -6 16 3 5 1 11 -4 14 -5 4 -8 0 -7 -6 3 -25 16 -35 40 -35 22 0 24 2 16
23 -5 13 -6 24 -2 25 4 1 21 2 37 3 17 2 36 4 43 4 9 2 12 12 7 38 -3 20 -8
40 -10 44 -3 5 0 12 6 16 8 5 9 3 4 -7 -8 -12 -6 -12 8 0 15 12 15 31 1 31 -3
0 -2 -5 2 -12 4 -7 3 -8 -5 -4 -6 4 -9 12 -5 17 3 5 10 7 15 4 5 -4 9 -2 9 4
0 15 49 65 66 67 8 1 20 -4 28 -11 12 -12 17 -7 37 31 24 44 49 61 70 48 8 -5
9 -3 5 5 -5 8 -2 11 9 9 13 -2 19 5 22 26 2 16 11 35 19 43 7 8 14 19 14 24 0
32 16 48 40 42 12 -3 20 0 20 6 0 7 -5 9 -11 6 -6 -4 -5 2 2 13 7 11 18 18 26
15 7 -3 20 8 29 24 22 38 64 70 64 49 0 -8 -4 -18 -10 -21 -5 -3 -10 -18 -9
-33 0 -27 0 -27 11 -4 6 13 17 21 24 18 7 -3 15 3 19 12 6 15 8 15 21 -2 12
-17 14 -17 14 -3 0 26 22 67 37 67 7 0 13 -6 13 -12 0 -7 5 -5 11 4 5 10 9 26
7 35 -2 13 3 17 15 15 12 -2 22 7 31 29 12 28 15 30 23 14 9 -15 12 -15 31 9
13 18 22 22 25 14 3 -8 6 -6 6 5 1 10 6 15 11 12 6 -4 10 -3 9 2 -4 26 2 44
14 37 9 -6 9 -4 1 7 -17 23 -11 42 13 44 19 1 21 -1 11 -14 -6 -9 2 -2 19 14
17 17 28 33 26 38 -2 4 9 35 25 70 16 34 36 76 43 94 8 18 23 34 36 37 12 4
25 15 28 27 14 44 65 108 84 104 14 -2 17 2 14 19 -4 20 20 94 46 145 14 27
31 24 32 -6 1 -25 2 -24 12 12 7 22 27 56 45 75 18 19 37 52 43 73 5 20 14 37
19 37 6 0 10 13 10 29 0 16 6 31 13 34 9 3 12 -4 11 -24 -2 -30 13 -40 22 -15
7 18 -14 58 -27 51 -12 -8 -12 44 2 122 l11 64 24 -68 c14 -37 34 -99 45 -138
12 -38 30 -88 40 -111 10 -23 19 -48 19 -56 0 -18 34 -120 55 -165 8 -17 15
-38 15 -46 0 -9 4 -19 10 -22 6 -3 7 1 4 12 -5 17 -5 17 6 0 6 -9 8 -22 4 -29
-4 -6 -3 -8 3 -5 15 9 55 -22 46 -36 -12 -19 -12 -35 1 -33 12 1 16 -6 16 -31
0 -15 -2 -16 -10 -3 -6 9 -10 10 -10 3 0 -6 4 -14 8 -17 11 -6 9 -43 -3 -53
-4 -5 -5 -3 -1 4 3 6 2 14 -2 17 -11 6 -10 -34 1 -51 21 -33 -15 -150 -60
-198 -21 -22 -21 -22 -29 -65 -4 -16 -10 -30 -15 -30 -5 0 -9 -6 -9 -14 0 -31
-59 -144 -86 -165 -16 -12 -23 -19 -15 -15 9 5 12 3 7 -5 -4 -6 -12 -8 -18 -5
-7 5 -9 1 -5 -9 3 -9 2 -19 -4 -22 -5 -4 -6 -11 -3 -17 4 -7 2 -8 -4 -4 -7 4
-20 -10 -33 -38 -11 -25 -28 -51 -37 -58 -16 -12 -16 -11 -2 7 14 18 14 19 -2
7 -10 -8 -14 -20 -11 -29 4 -11 2 -14 -5 -9 -7 4 -12 1 -12 -9 0 -10 5 -13 12
-9 7 4 8 3 4 -5 -6 -9 -11 -9 -24 1 -13 11 -14 11 -8 0 5 -9 1 -19 -13 -28
-12 -9 -19 -20 -16 -25 4 -5 1 -9 -5 -9 -6 0 -9 -4 -6 -9 3 -5 -2 -15 -11 -22
-9 -8 -14 -9 -10 -2 5 7 1 10 -10 8 -10 -2 -19 -4 -20 -5 -2 -2 -9 -3 -15 -4
-7 -1 -12 -10 -10 -20 5 -27 -6 -48 -20 -39 -26 15 -35 11 -30 -16 l6 -26 7
25 7 25 1 -26 c1 -15 -7 -33 -16 -40 -14 -12 -16 -12 -9 1 4 8 0 6 -8 -4 -14
-17 -16 -17 -16 -4 0 9 4 20 10 23 6 3 10 14 9 23 0 14 -2 14 -8 -2 -7 -19 -8
-18 -14 4 -6 24 -6 24 -25 5 -12 -12 -15 -23 -9 -26 5 -4 7 -15 3 -25 -6 -18
-5 -18 8 -1 8 10 12 28 10 40 -4 20 -4 21 4 2 12 -27 -6 -65 -30 -65 -11 0
-17 4 -13 9 3 5 0 13 -6 17 -7 4 -9 3 -6 -3 4 -6 1 -13 -7 -16 -8 -3 -13 -14
-11 -24 2 -10 4 -24 4 -30 1 -10 338 -13 1609 -13 l1607 0 -65 33 c-36 18 -87
46 -115 62 -183 103 -637 316 -730 342 -93 26 -166 43 -183 43 -27 0 -132 109
-162 166 -13 27 -34 62 -47 77 -13 16 -23 39 -23 51 0 13 -23 67 -50 122 -28
54 -67 140 -87 189 -20 50 -42 100 -50 112 -8 12 -21 50 -29 84 -8 34 -28 87
-44 118 -17 31 -37 82 -45 113 -8 31 -28 86 -45 121 -17 36 -38 89 -46 118
-24 83 -51 117 -128 166 -39 25 -100 71 -136 103 -95 83 -116 92 -255 102 -66
4 -131 10 -145 12 -14 3 -88 15 -165 27 -139 22 -170 32 -159 51 4 6 6 52 5
104 -1 52 2 94 6 94 5 0 7 20 5 45 -3 26 1 52 8 60 7 8 13 34 14 57 1 42 2 43
36 43 29 0 36 4 38 23 2 13 -2 22 -10 22 -7 0 -19 4 -27 9 -12 8 -12 12 -2 25
9 11 10 20 2 35 -20 36 -13 62 19 74 17 6 30 15 30 20 0 4 16 6 36 3 21 -4 43
-1 53 6 18 13 21 18 21 37 0 5 9 13 20 16 23 7 50 32 50 46 0 15 -56 10 -69
-5 -7 -8 -21 -13 -31 -11 -11 2 -19 1 -19 -3 4 -26 -2 -32 -21 -22 -11 6 -17
16 -14 22 4 6 3 8 -3 5 -5 -3 -9 -22 -8 -42 0 -22 -4 -35 -12 -35 -7 0 -13 -6
-14 -12 0 -7 -4 -1 -9 15 -5 16 -3 59 4 106 7 43 12 107 12 144 -1 55 1 64 13
54 12 -10 13 -8 7 13 -16 48 -4 129 14 100 6 -9 11 -6 20 10 10 20 10 22 -3
17 -10 -4 -14 0 -12 11 2 9 4 18 5 20 2 1 3 23 4 50 1 26 7 57 14 70 7 12 9
22 5 22 -4 0 -2 5 5 12 7 7 12 38 12 69 0 32 4 60 9 64 5 3 12 18 16 34 3 16
18 42 33 56 15 15 27 32 27 39 0 6 10 12 22 14 19 3 40 41 35 65 -1 4 4 7 11
7 11 0 16 19 20 67 0 7 6 14 12 17 7 2 12 26 12 54 1 27 6 59 13 71 6 13 9 29
6 37 -3 8 -2 14 3 14 4 0 6 11 3 25 -2 15 -9 22 -16 18 -6 -3 -3 3 7 15 18 19
18 20 1 18 -10 -2 -20 -8 -22 -15 -2 -7 -14 1 -28 20 -13 18 -21 37 -17 42 3
6 1 7 -6 3 -6 -4 -9 -11 -6 -16 6 -10 -35 -4 -44 6 -3 4 3 4 14 0 17 -5 16 -3
-4 12 -15 12 -20 22 -13 26 6 3 9 15 7 25 -4 21 20 37 30 20 4 -5 10 -7 15 -4
11 7 4 47 -11 55 -6 4 -9 13 -8 21 3 22 -12 49 -27 49 -7 0 -17 12 -20 28 -4
15 -14 37 -21 49 -8 12 -11 28 -7 34 4 8 3 9 -4 5 -22 -13 -12 11 11 28 12 9
17 14 11 12 -7 -3 -15 1 -18 10 -11 29 -6 39 10 19 13 -17 16 -18 24 -5 5 8
10 27 10 43 0 15 5 27 11 27 6 0 9 6 6 13 -2 6 0 20 5 30 7 14 3 23 -16 38
-15 11 -24 25 -21 30 4 5 1 9 -5 9 -7 0 -5 6 4 15 8 9 13 22 9 30 -6 16 13 45
29 45 6 0 8 -18 6 -41 l-4 -40 19 25 c22 31 37 34 32 6 -2 -12 -1 -28 2 -36 4
-12 7 -12 19 3 7 10 14 26 14 36 0 10 7 20 15 23 8 4 15 12 15 19 0 8 5 17 12
21 7 4 8 3 4 -4 -5 -8 -2 -10 8 -6 11 4 13 14 10 34 -8 37 27 71 66 64 25 -6
27 -4 22 25 -2 19 0 31 7 31 6 0 11 7 11 15 0 8 4 15 8 15 5 0 22 11 38 25 43
37 92 58 125 53 20 -3 26 -1 19 6 -12 12 -14 66 -2 66 5 0 14 11 21 24 9 16
19 22 32 19 14 -4 19 0 19 14 0 26 6 31 34 26 18 -4 22 -10 18 -29 -3 -14 0
-24 8 -24 8 0 10 19 5 73 -10 94 -7 169 5 181 6 6 10 24 10 40 1 17 8 49 16
71 51 132 59 404 17 592 -13 59 -30 164 -37 233 -13 119 -23 164 -67 291 -10
31 -19 62 -19 69 0 7 -11 27 -24 44 -25 33 -46 104 -28 92 21 -13 22 14 2 31
-11 10 -20 27 -20 40 0 12 -6 26 -14 30 -9 5 -17 31 -21 63 l-7 55 20 -25 c11
-13 20 -29 19 -34 -1 -4 3 -10 9 -13 18 -6 -14 81 -39 108 -11 12 -22 31 -23
43 -1 12 -5 40 -9 62 -4 25 -3 44 3 48 11 6 -16 76 -30 76 -11 0 -10 -2 7 -43
10 -25 11 -38 4 -42 -13 -9 -39 25 -32 41 2 7 -4 21 -14 31 -11 11 -17 25 -15
31 2 7 -11 33 -30 57 l-33 44 -2776 1 -2777 0 -6 -35z m3329 -545 c-3 -5 -10
-10 -16 -10 -5 0 -9 5 -9 10 0 6 7 10 16 10 8 0 12 -4 9 -10z m-3 -128 c-7 -2
-12 -10 -12 -17 0 -7 -21 -35 -46 -62 -26 -26 -43 -42 -39 -34 6 11 4 13 -9 8
-11 -5 -15 -3 -10 5 5 8 2 9 -11 4 -14 -5 -16 -4 -7 7 9 10 8 14 -3 14 -8 0
-13 -2 -10 -5 11 -11 -18 -42 -40 -42 -31 0 -32 19 -2 65 24 38 47 52 47 30 0
-8 -5 -15 -12 -15 -9 0 -9 -3 0 -12 15 -15 24 -6 26 24 1 14 11 28 29 36 15 7
27 19 27 26 0 18 45 37 57 25 6 -6 9 2 7 23 -2 18 2 9 8 -21 9 -42 9 -56 0
-59z m-82 74 c0 -2 -8 -10 -17 -17 -16 -13 -17 -12 -4 4 13 16 21 21 21 13z
m153 -72 c5 -28 4 -31 -13 -27 -14 4 -20 0 -20 -10 0 -9 -4 -18 -9 -21 -5 -4
-8 0 -7 6 3 15 39 89 41 85 1 -1 5 -16 8 -33z m-63 -64 c0 -5 -5 -10 -11 -10
-5 0 -7 5 -4 10 3 6 8 10 11 10 2 0 4 -4 4 -10z m50 -20 c0 -5 -7 -10 -15 -10
-9 0 -14 -9 -13 -24 3 -28 -32 -106 -47 -106 -6 0 -11 -8 -12 -17 -1 -10 -5
-36 -8 -57 l-6 -40 31 35 c17 19 44 54 60 78 17 25 30 40 30 35 0 -5 4 -3 9 5
7 11 11 5 16 -23 5 -26 11 -34 18 -27 7 7 14 7 23 0 9 -8 11 -5 7 10 -4 16 2
21 33 30 42 12 67 0 46 -21 -8 -8 -15 -8 -25 1 -12 9 -13 7 -10 -12 3 -14 -4
-32 -19 -48 -20 -21 -22 -28 -10 -38 10 -10 18 -10 38 4 13 9 22 19 20 24 -3
4 10 21 28 37 18 16 35 34 37 40 2 6 14 15 27 19 22 6 23 5 18 -32 -6 -38 -6
-38 7 -10 23 49 41 52 47 9 l6 -37 16 35 c9 19 17 29 17 23 1 -20 25 -15 39 7
7 11 17 20 22 20 6 0 1 -9 -10 -20 -17 -17 -18 -23 -8 -34 7 -8 16 -12 19 -10
8 5 38 -33 32 -40 -4 -3 0 -6 7 -6 7 0 11 -3 7 -6 -3 -3 5 -18 18 -32 18 -19
21 -29 13 -39 -5 -7 -15 -10 -22 -7 -6 3 -3 -1 6 -9 10 -8 15 -16 12 -19 -3
-4 -1 -9 4 -12 6 -4 9 5 7 19 l-2 26 26 -23 c14 -13 20 -16 13 -6 -10 12 -10
18 -1 24 7 4 9 3 5 -4 -3 -6 -1 -14 5 -17 5 -4 8 -13 5 -20 -2 -7 1 -23 8 -37
7 -13 10 -30 8 -38 -3 -8 -2 -12 2 -9 4 4 9 17 11 29 2 12 7 25 10 28 6 6 8
-25 6 -98 -1 -36 1 -50 7 -42 7 10 11 7 14 -12 3 -14 1 -23 -3 -20 -14 8 -10
-10 6 -32 8 -10 15 -31 15 -46 0 -15 11 -66 25 -112 13 -47 25 -103 27 -126 1
-22 5 -40 9 -40 4 0 10 -8 13 -17 3 -10 3 23 1 72 -3 56 -1 84 5 75 5 -8 7
-17 4 -21 -2 -4 0 -10 6 -14 5 -3 10 -21 11 -38 1 -18 5 -43 9 -57 6 -20 8
-16 8 20 0 25 3 69 7 98 4 29 8 77 8 107 1 30 7 58 12 64 7 6 10 -28 10 -102
0 -102 9 -152 25 -142 3 2 5 51 4 109 -2 102 -2 105 17 93 10 -6 19 -19 19
-27 0 -9 9 -16 21 -16 18 0 19 2 4 12 -10 7 -12 15 -6 18 5 4 15 -3 21 -14 6
-11 8 -20 5 -20 -3 0 -1 -10 5 -22 11 -22 11 -22 -8 1 -15 19 -21 21 -27 10
-5 -8 -5 -11 0 -7 13 12 42 -34 50 -80 4 -23 11 -40 16 -36 5 3 7 9 4 14 -3 5
-1 12 5 15 8 5 7 11 -1 21 -6 8 -8 14 -4 14 4 0 2 6 -4 14 -9 11 -9 16 0 22 7
4 9 3 5 -4 -3 -6 -2 -13 4 -17 5 -3 10 -1 10 6 0 7 3 9 6 6 4 -4 2 -12 -4 -19
-7 -9 -6 -18 4 -32 7 -10 11 -22 9 -27 -3 -4 -2 -10 3 -13 5 -3 9 0 9 7 0 7 3
24 6 40 3 16 2 25 -4 22 -5 -4 -6 -11 -3 -17 4 -6 2 -8 -4 -5 -5 4 -8 16 -5
27 5 19 6 18 38 -5 29 -22 34 -24 45 -10 10 12 16 13 26 4 15 -12 9 -33 -7
-23 -5 3 -6 10 -3 16 4 7 2 8 -5 4 -9 -6 -9 -11 -1 -21 12 -15 53 -8 43 8 -3
6 -1 7 5 3 7 -4 12 -2 12 5 0 7 9 2 20 -11 18 -21 24 -34 22 -51 -1 -3 6 -6
14 -6 8 0 14 4 14 9 0 5 4 7 8 4 4 -2 9 5 9 17 1 12 -1 17 -5 10 -5 -7 -11 -3
-19 13 -11 23 -1 35 12 13 5 -6 12 -4 22 8 8 10 12 13 9 6 -4 -6 -2 -14 3 -17
11 -7 9 13 -3 33 -6 10 -5 12 2 7 8 -5 10 -2 6 8 -13 34 12 13 30 -25 20 -42
41 -64 30 -32 -4 10 5 3 19 -16 15 -19 33 -59 42 -90 8 -31 22 -78 30 -105 8
-26 15 -56 15 -65 0 -9 7 -25 15 -35 15 -19 15 -19 15 1 0 11 -7 37 -15 57 -9
20 -13 41 -9 47 3 5 -1 20 -8 32 -17 26 -41 107 -35 113 3 3 13 -18 23 -45 9
-27 22 -47 27 -44 6 3 7 1 3 -5 -4 -7 -2 -12 4 -12 6 0 8 -4 5 -10 -3 -5 -1
-10 5 -10 6 0 8 -4 5 -10 -3 -5 -2 -10 4 -10 6 0 7 -7 4 -17 -5 -12 -3 -14 7
-8 10 6 12 4 7 -8 -4 -11 -2 -14 7 -11 10 4 13 -6 11 -40 -3 -49 9 -53 26 -8
10 25 12 26 23 10 7 -10 17 -14 21 -10 5 4 5 1 1 -5 -4 -8 -2 -13 6 -14 10 0
10 -2 1 -6 -7 -2 -13 -9 -13 -14 0 -6 5 -7 12 -3 7 4 8 3 4 -5 -6 -8 -12 -9
-20 -2 -9 8 -13 7 -13 -4 0 -7 3 -14 6 -13 3 0 13 0 21 -1 13 -1 13 -2 0 -11
-13 -8 -13 -10 2 -10 13 0 16 -6 12 -26 -3 -15 2 -37 11 -50 9 -14 13 -29 10
-34 -3 -6 0 -10 7 -10 10 0 10 -2 0 -9 -17 -10 -17 -18 3 -37 15 -15 20 -45
16 -97 -1 -16 4 -36 11 -45 11 -13 11 -15 -2 -7 -9 5 -8 0 4 -13 11 -12 16
-22 11 -22 -4 0 -2 -6 4 -13 6 -8 8 -17 4 -20 -3 -4 -1 -7 5 -7 7 0 12 -13 12
-29 0 -17 4 -33 10 -36 5 -3 15 -16 21 -28 10 -22 10 -22 -8 -2 -30 34 -65 18
-44 -20 3 -5 6 -17 7 -25 0 -8 3 -22 7 -30 8 -21 5 -50 -4 -44 -5 2 -6 11 -2
19 3 9 1 21 -5 28 -5 6 -8 20 -7 30 2 9 -1 15 -5 12 -18 -11 2 -253 21 -266 5
-3 11 -25 14 -49 2 -24 10 -47 17 -51 10 -7 10 -9 1 -9 -16 0 3 -47 29 -73 19
-19 24 -37 9 -37 -4 0 -19 22 -32 49 -13 27 -26 48 -29 46 -4 -2 -6 5 -6 17 1
12 -5 23 -11 25 -17 6 -16 -16 2 -51 12 -22 13 -31 4 -37 -6 -4 -9 -11 -5 -17
3 -6 1 -14 -5 -18 -8 -4 -7 -9 2 -15 11 -7 11 -9 1 -9 -7 0 -10 -4 -7 -10 3
-5 0 -10 -7 -10 -9 0 -9 -3 2 -10 13 -8 12 -10 -2 -10 -10 0 -18 -5 -18 -11 0
-5 5 -7 12 -3 6 4 8 3 5 -3 -3 -5 3 -34 14 -63 13 -33 22 -85 24 -135 3 -80 9
-117 20 -135 3 -6 1 -10 -5 -10 -6 0 -8 -4 -5 -10 3 -5 2 -10 -3 -10 -11 0
-10 -40 1 -57 5 -7 4 -13 -2 -13 -16 0 -18 -33 -3 -80 21 -70 22 -78 7 -90 -9
-8 -11 -19 -7 -33 5 -12 3 -47 -4 -77 -7 -30 -13 -48 -14 -40 -1 11 -3 11 -7
2 -2 -6 -8 -10 -12 -8 -4 3 -7 -4 -7 -15 0 -19 1 -19 13 -3 7 10 13 14 13 10
0 -5 6 -3 14 3 12 10 14 9 12 -6 -2 -10 -8 -18 -14 -18 -6 0 -17 -6 -24 -14
-10 -10 -10 -12 0 -7 14 8 15 5 6 -18 -3 -9 -10 -13 -15 -10 -5 3 -9 -2 -9
-10 0 -9 -3 -15 -7 -15 -5 1 -11 0 -15 -1 -5 -1 -14 -3 -20 -4 -7 0 -13 -10
-14 -21 0 -11 -4 -27 -7 -35 -4 -8 -9 -28 -11 -44 -3 -15 -12 -39 -22 -53 -9
-14 -12 -23 -6 -19 6 3 12 -9 14 -29 2 -19 0 -35 -5 -35 -4 0 -6 -4 -2 -9 3
-5 1 -12 -5 -16 -5 -3 -10 1 -10 9 0 11 -7 15 -22 12 -17 -2 -23 -10 -24 -32
-1 -16 -3 -31 -4 -34 -1 -3 -2 -8 -1 -12 0 -4 -6 -5 -13 -2 -11 4 -13 0 -9
-15 3 -12 9 -21 13 -21 11 0 0 -39 -13 -47 -6 -4 -7 -1 -2 7 6 10 4 12 -8 7
-13 -5 -14 -2 -5 24 8 23 7 33 -2 42 -10 10 -11 8 -6 -8 6 -16 5 -17 -5 -8 -9
9 -9 16 -1 26 7 8 9 18 5 23 -4 5 -1 3 7 -3 22 -20 35 -15 17 5 -10 10 -14 21
-11 24 3 3 -1 9 -8 14 -7 4 -10 4 -6 -1 4 -4 3 -13 -2 -20 -5 -7 -12 -27 -14
-46 -3 -19 -5 -36 -6 -39 -1 -3 -1 -16 0 -30 2 -30 -9 -22 -15 10 -5 27 -15
39 -15 18 0 -29 32 -108 42 -102 5 3 4 -3 -3 -14 -10 -16 -16 -18 -26 -10 -10
8 -13 6 -14 -8 -1 -17 -2 -17 -6 -1 -2 9 -11 17 -19 17 -11 0 -14 -9 -12 -32
2 -20 -3 -37 -11 -44 -18 -14 3 -56 26 -52 9 2 18 -4 20 -12 4 -13 3 -13 -6 0
-10 13 -11 13 -12 0 -1 -8 -1 -18 -1 -21 1 -4 -8 -5 -18 -2 -23 6 -24 4 -11
-30 6 -15 6 -29 -1 -38 -7 -11 -8 -9 -3 6 5 16 4 18 -6 8 -17 -17 -32 -17 -23
0 4 6 4 9 -1 5 -4 -4 -14 -3 -22 3 -19 16 -16 5 12 -46 24 -42 23 -50 -7 -46
-3 0 -5 -7 -3 -17 1 -9 -3 -23 -9 -31 -8 -11 -8 -13 1 -8 6 4 15 2 19 -4 4 -8
3 -9 -4 -5 -7 4 -12 2 -12 -3 0 -6 6 -11 13 -12 9 0 9 -2 0 -6 -9 -3 -7 -11 7
-26 11 -11 20 -31 20 -44 0 -31 -6 -29 -25 7 -9 17 -13 30 -10 30 4 0 3 6 -2
13 -4 6 -8 14 -8 17 -1 12 -24 44 -25 35 -1 -5 -3 -18 -5 -28 -2 -9 1 -15 5
-12 9 6 3 -66 -7 -75 -3 -3 -3 10 1 29 5 30 4 32 -11 20 -11 -10 -14 -10 -9
-1 6 10 -6 17 -18 10 -8 -5 -45 35 -41 43 3 4 1 10 -5 14 -16 10 -24 -23 -10
-40 10 -12 9 -16 -4 -21 -15 -6 -15 -8 1 -19 10 -7 21 -12 24 -9 3 2 4 -8 1
-21 -2 -13 -7 -24 -11 -23 -35 4 -51 -4 -51 -27 0 -14 4 -25 9 -25 5 0 17 -8
27 -17 15 -16 15 -18 -11 -39 -18 -14 -25 -26 -19 -35 13 -22 12 -69 -3 -69
-8 0 -12 -10 -11 -25 1 -14 6 -25 11 -25 5 0 4 -7 -3 -15 -7 -8 -16 -13 -20
-10 -15 9 -20 -12 -6 -24 8 -7 12 -20 9 -31 -4 -15 -9 -17 -23 -10 -13 7 -23
6 -33 -5 -8 -8 -19 -11 -23 -7 -5 4 9 -14 31 -38 38 -42 59 -100 37 -100 -13
0 -42 62 -34 75 3 5 -2 4 -11 -4 -15 -12 -17 -12 -11 3 6 15 2 17 -34 11 -28
-4 -43 -2 -49 7 -13 21 -42 18 -38 -3 5 -26 -11 -33 -27 -12 -7 10 -20 19 -28
21 -8 2 -19 8 -25 15 -5 7 -21 14 -35 15 -28 5 -90 63 -113 107 -8 17 -33 44
-56 60 -26 19 -41 38 -41 53 0 12 -4 22 -9 22 -5 0 -8 13 -6 30 2 18 -3 38
-14 51 l-18 22 -5 -21 c-4 -12 -2 -20 3 -16 16 10 9 -9 -8 -22 -23 -17 -39
-18 -26 -1 13 16 12 47 -1 47 -6 0 -3 7 7 14 16 12 16 14 2 20 -9 3 -13 2 -10
-4 3 -6 3 -10 0 -10 -6 0 -38 68 -39 83 -1 4 -8 12 -16 17 -8 5 -15 24 -15 42
-1 28 -4 33 -23 32 -12 -1 -22 1 -23 5 0 3 -2 21 -4 39 -1 18 -13 44 -25 57
-24 26 -33 72 -16 83 9 5 7 12 -5 24 -15 14 -18 15 -23 1 -5 -13 -10 -12 -29
6 -12 11 -31 29 -43 38 -23 20 -36 48 -26 57 14 15 9 36 -9 36 -13 0 -18 4
-13 12 5 8 2 9 -9 5 -10 -4 -17 -2 -17 4 0 6 -9 9 -20 6 -14 -4 -22 2 -29 22
-7 18 -10 21 -10 8 -1 -16 -3 -17 -16 -3 -8 8 -15 21 -15 29 0 8 -9 25 -21 38
-17 20 -22 21 -30 9 -8 -13 -10 -13 -19 0 -6 10 -10 11 -10 3 0 -26 -20 -12
-21 15 l-1 27 -7 -25 c-8 -25 5 -54 19 -45 4 2 6 -11 4 -30 -1 -19 2 -35 7
-35 6 0 8 -3 5 -8 -2 -4 25 -36 60 -71 49 -50 64 -71 64 -93 0 -17 4 -27 10
-23 6 3 10 2 10 -2 0 -5 13 -17 30 -26 17 -10 27 -23 24 -31 -3 -8 11 -30 30
-49 19 -20 38 -47 42 -62 3 -14 11 -24 17 -22 11 3 57 -43 57 -57 0 -6 8 -17
36 -49 5 -7 17 -27 25 -44 10 -23 21 -33 36 -33 14 0 23 -6 23 -15 0 -13 16
-45 37 -74 1 -2 10 2 19 10 16 13 16 12 5 -6 -9 -15 -10 -26 -2 -45 14 -33 32
-60 52 -80 27 -25 59 -118 52 -150 -3 -17 -10 -30 -15 -30 -5 0 -7 4 -4 9 11
17 -15 71 -35 71 -10 0 -19 5 -19 11 0 6 7 9 15 5 21 -8 19 17 -3 38 -11 9
-25 34 -32 55 -8 26 -17 38 -26 34 -8 -3 -14 1 -14 11 0 10 -9 16 -25 16 -14
0 -24 -3 -23 -8 1 -4 -4 -20 -11 -37 -12 -28 -13 -29 -26 -11 -8 10 -21 16
-29 13 -19 -8 -47 35 -35 54 5 8 9 22 9 33 0 15 -3 16 -14 7 -11 -9 -15 -9
-19 1 -4 9 -6 7 -6 -4 -1 -9 4 -18 11 -20 7 -3 9 -12 4 -24 -7 -18 -8 -18 -21
6 -7 14 -11 29 -7 35 3 5 -1 5 -9 -2 -8 -6 -18 -13 -24 -15 -5 -1 -9 -14 -7
-26 3 -20 1 -22 -11 -11 -8 8 -12 21 -9 31 2 10 1 29 -2 44 -6 22 -11 25 -33
19 -21 -5 -24 -3 -19 10 4 11 2 15 -6 13 -6 -2 -12 -21 -13 -40 0 -39 -15 -67
-15 -30 0 11 -4 23 -9 26 -5 3 -7 -11 -4 -32 3 -27 1 -33 -6 -22 -6 8 -11 22
-11 31 0 22 -39 32 -47 13 -3 -8 -3 -18 1 -21 3 -4 6 2 6 12 0 27 16 6 23 -30
4 -16 4 -24 1 -17 -3 6 -13 12 -22 12 -9 0 -27 18 -40 40 -19 34 -26 39 -47
34 -15 -4 -32 -1 -40 6 -13 11 -14 10 -8 -5 5 -15 3 -17 -11 -12 -10 4 -15 3
-11 -3 3 -6 2 -10 -3 -10 -11 0 -31 37 -37 67 -3 16 3 27 18 35 25 15 33 50 9
41 -12 -5 -14 -1 -9 19 5 17 2 30 -8 38 -8 7 -12 17 -8 23 3 6 1 7 -5 3 -7 -4
-20 -9 -29 -11 -10 -2 -26 -6 -35 -10 -11 -4 -18 -3 -18 4 0 6 5 11 11 11 8 0
7 6 -2 17 -12 15 -12 16 2 11 9 -4 22 -1 29 5 10 9 11 9 5 -3 -6 -11 -3 -10
11 2 59 54 78 67 87 61 6 -3 7 -1 3 6 -6 9 -43 10 -66 1 -3 -1 -8 -2 -12 -1
-5 0 -8 -4 -8 -10 0 -7 -10 -9 -25 -5 -25 6 -31 -2 -39 -59 -4 -31 -32 -42
-53 -22 -27 24 -65 26 -68 5 -2 -10 1 -18 6 -18 5 0 9 -5 9 -12 0 -6 7 -19 15
-28 16 -18 11 -80 -7 -80 -5 0 -8 6 -7 13 5 26 -12 76 -25 71 -8 -3 -16 8 -22
27 l-9 33 -18 -28 c-10 -15 -15 -31 -11 -34 4 -4 9 -1 11 6 6 15 23 6 23 -12
0 -7 -12 -13 -30 -13 -16 0 -30 5 -30 11 0 6 -10 16 -22 21 -14 6 -24 21 -26
37 -3 24 -6 27 -22 18 -12 -6 -21 -7 -25 0 -3 5 -12 7 -20 3 -8 -3 -15 0 -15
7 0 6 -5 8 -10 5 -6 -4 -7 -11 -4 -17 5 -7 2 -8 -5 -3 -9 5 -10 10 -2 18 17
17 14 47 -4 41 -10 -4 -15 0 -15 11 0 9 -4 14 -9 11 -5 -3 -12 1 -15 10 -3 8
-11 12 -17 8 -8 -4 -9 -3 -5 4 4 7 4 12 -1 12 -4 0 -9 16 -10 35 -3 52 -5 65
-15 65 -5 0 -6 -11 -4 -25 3 -14 1 -23 -4 -20 -4 3 -7 18 -6 35 2 30 -8 41
-17 18 -3 -7 -4 -3 -4 9 1 12 6 19 12 16 7 -4 7 -3 0 4 -20 21 -52 24 -59 7
-5 -14 -4 -15 8 -5 11 9 16 9 22 0 4 -7 3 -9 -4 -5 -6 4 -16 -4 -23 -16 -16
-31 -60 -78 -73 -78 -6 0 -4 5 4 10 12 7 10 9 -7 7 -12 0 -19 -5 -17 -9 3 -4
1 -8 -3 -8 -5 0 -16 12 -25 27 -15 25 -15 29 1 52 9 14 11 22 4 18 -9 -6 -19
4 -30 29 -13 26 -15 38 -7 41 7 2 10 13 7 23 -3 12 0 20 6 20 7 0 9 5 6 10 -3
6 -2 10 4 10 5 0 12 -6 14 -12 4 -8 6 -7 6 4 1 9 -5 19 -11 22 -7 4 -3 4 9 2
13 -2 26 1 30 6 4 7 11 5 19 -7 12 -16 13 -16 11 3 -1 20 -12 23 -34 9 -8 -5
-11 -1 -10 12 1 16 6 19 24 15 14 -4 23 -2 23 6 0 6 4 9 9 5 6 -3 16 5 22 17
15 27 19 59 7 52 -4 -3 -8 -15 -9 -27 -1 -20 -2 -20 -9 3 -8 25 -8 25 -9 2 -1
-13 -5 -20 -11 -17 -6 3 -7 -1 -4 -10 5 -11 2 -14 -10 -9 -9 3 -13 11 -9 17 3
6 1 7 -6 3 -6 -4 -9 -12 -6 -17 4 -5 1 -9 -4 -9 -14 0 -14 27 -1 35 18 11 11
25 -12 26 -13 0 -17 3 -10 6 6 2 12 11 12 19 0 11 7 13 26 8 21 -5 25 -4 19 6
-6 9 -4 12 7 8 15 -6 15 8 5 87 -4 25 12 75 23 75 9 0 7 26 -3 36 -4 4 -8 2
-8 -4 -1 -7 -3 -16 -4 -22 -1 -5 -3 -15 -4 -22 -1 -12 -15 -2 -17 13 -3 22 -5
23 -14 9 -8 -12 -10 -11 -10 7 0 12 5 25 10 28 6 4 7 12 3 18 -5 8 -2 8 9 0
22 -19 25 -9 17 59 -7 59 -6 95 4 143 3 11 0 26 -6 34 -14 17 -18 43 -6 35 5
-3 7 -9 4 -14 -3 -5 -2 -11 3 -14 4 -2 8 13 7 35 0 21 -3 39 -8 39 -4 0 -5 11
-3 25 3 13 0 28 -6 31 -6 4 -8 2 -4 -4 3 -6 1 -14 -6 -18 -7 -4 -10 -4 -6 1 8
9 -18 65 -31 65 -13 0 -24 101 -12 113 6 6 11 24 11 39 0 15 4 28 9 28 5 0 7
19 5 43 -1 23 -5 91 -9 151 -6 116 -10 130 -27 120 -6 -4 -8 -2 -4 4 3 6 2 13
-3 17 -6 3 -8 12 -5 19 3 7 -1 31 -9 54 -8 23 -12 53 -9 68 3 18 0 30 -12 36
-9 5 -14 13 -11 18 3 5 1 11 -4 15 -6 3 -8 12 -5 19 3 8 1 17 -5 21 -6 3 -11
17 -11 31 0 14 -4 23 -10 19 -5 -3 -7 -12 -3 -20 3 -10 -1 -15 -12 -15 -13 0
-15 6 -10 30 5 21 2 39 -9 55 -20 31 -20 49 0 69 8 9 16 25 17 35 0 11 5 17
10 14 5 -3 7 -21 5 -39 -2 -19 0 -34 4 -34 4 0 8 6 9 13 0 6 2 26 5 44 2 18 0
42 -6 55 -5 13 -9 17 -9 11 -1 -7 -6 -13 -12 -13 -7 0 -9 8 -4 23 10 33 13
417 3 423 -8 5 -2 120 7 135 3 4 -2 12 -10 19 -8 7 -12 16 -9 21 3 5 1 9 -4 9
-10 0 -7 28 6 60 3 8 6 19 6 24 1 5 9 10 19 12 15 2 22 -7 18 -28 0 -5 4 -8 9
-8 13 0 13 37 0 45 -6 4 -7 12 -3 18 5 9 2 8 -8 0 -13 -11 -15 -9 -13 10 1 12
3 30 3 40 1 10 6 15 11 12 12 -8 13 15 1 34 -7 11 -10 9 -16 -8 -9 -29 -23
-27 -35 5 -8 20 -6 38 9 78 11 28 21 44 22 36 1 -8 2 -20 3 -27 1 -12 35 -42
49 -43 4 0 7 7 7 15 0 9 7 18 15 21 18 7 20 35 3 52 -8 8 -8 12 -1 12 6 0 13
12 16 28 15 73 24 110 31 120 11 19 35 14 31 -5 -2 -10 -6 -31 -9 -48 -3 -16
-3 -24 0 -17 8 17 24 15 24 -3 0 -8 7 -15 15 -15 9 0 12 -6 9 -17 -3 -10 2 -5
11 10 9 16 14 31 11 35 -3 3 -6 0 -6 -7 0 -7 -4 -10 -10 -6 -6 4 -6 15 0 30 5
14 7 32 4 40 -8 21 13 19 25 -2 5 -10 13 -15 17 -11 4 4 1 14 -6 23 -10 12
-10 15 0 15 7 0 10 6 7 13 -2 6 0 23 4 36 7 17 12 21 22 13 10 -8 13 -6 15 9
1 10 2 25 3 32 1 6 0 18 -2 26 -3 11 7 15 39 16 23 0 42 -4 42 -9 0 -11 29 25
30 37 0 4 -4 7 -10 7 -5 0 -10 -6 -10 -13 0 -20 -29 -16 -36 5 -3 10 -10 18
-17 18 -6 0 -1 9 10 19 12 11 23 25 25 31 2 8 11 8 28 2 14 -5 40 -7 58 -6 17
2 45 5 62 7 16 2 32 -2 34 -7 2 -6 3 -1 3 12 -1 17 -7 22 -30 22 -15 0 -26 4
-23 9 3 4 -6 6 -19 3 -15 -2 -25 0 -25 7 0 6 4 11 8 11 4 0 7 17 5 38 -1 20 0
29 3 20 7 -23 10 -22 34 2 21 21 46 19 34 -2 -4 -7 -2 -8 4 -4 9 5 9 13 1 28
-9 16 -8 19 2 13 9 -6 11 -2 6 16 -6 22 -5 23 8 5 7 -10 18 -15 23 -12 6 3 12
0 15 -6 2 -7 8 -10 12 -6 10 9 -14 40 -25 33 -5 -3 -11 -1 -14 4 -7 11 16 30
45 37 13 3 34 8 47 11 14 4 22 1 22 -8 0 -9 3 -10 8 -3 4 6 24 14 44 17 46 7
56 -12 22 -44 -13 -12 -24 -27 -24 -32 0 -6 13 3 28 19 42 42 115 109 131 118
10 7 12 4 6 -13 -5 -16 -3 -20 9 -15 8 3 15 9 14 12 -2 22 4 32 22 32 11 0 20
-4 20 -10z m164 -37 c-3 -35 -2 -37 11 -19 17 23 29 16 21 -12 -5 -14 -13 -18
-30 -15 -25 5 -25 7 -11 63 5 21 5 20 9 20 2 0 2 -17 0 -37z m132 -28 c-3 -8
-12 -12 -20 -9 -12 5 -12 8 2 23 18 18 28 10 18 -14z m-346 -94 c0 -6 -4 -13
-10 -16 -5 -3 -10 1 -10 9 0 9 5 16 10 16 6 0 10 -4 10 -9z m-613 -203 c-3 -8
-6 -5 -6 6 -1 11 2 17 5 13 3 -3 4 -12 1 -19z m-3131 -54 c-7 -61 -22 -98 -36
-89 -5 3 -7 20 -4 38 6 35 34 107 42 107 3 0 2 -25 -2 -56z m4471 -96 c-3 -7
-5 -2 -5 12 0 14 2 19 5 13 2 -7 2 -19 0 -25z m28 -118 c6 -60 5 -64 -9 -46
-11 13 -16 40 -16 80 1 78 16 56 25 -34z m43 65 c-3 -3 -9 2 -12 12 -6 14 -5
15 5 6 7 -7 10 -15 7 -18z m494 -131 c-12 -22 -28 0 -35 50 l-6 40 25 -37 c17
-26 22 -42 16 -53z m-2322 35 c-11 -20 -22 -24 -33 -12 -9 9 23 44 34 37 5 -3
4 -14 -1 -25z m-90 -16 c-1 -15 -30 -46 -37 -40 -3 4 2 16 12 27 19 21 25 24
25 13z m50 -18 c0 -8 0 -18 -1 -21 0 -4 5 -10 11 -14 10 -6 10 -15 -1 -38 -9
-21 -16 -27 -21 -19 -5 8 -8 7 -8 -5 0 -9 4 -19 10 -23 10 -6 -5 -49 -27 -76
-7 -8 -12 -32 -11 -53 1 -21 -4 -41 -11 -45 -8 -5 -6 -13 9 -26 15 -14 17 -21
9 -32 -9 -10 -8 -13 4 -13 21 0 40 -36 34 -61 -3 -11 0 -25 7 -32 7 -7 16 -30
20 -51 10 -53 18 -38 20 36 0 35 6 63 11 63 6 0 9 -24 8 -55 -7 -175 0 -440
11 -459 4 -6 3 -11 -2 -11 -5 0 -12 -23 -16 -51 -6 -44 -10 -50 -26 -46 -14 4
-20 0 -21 -11 -1 -14 -2 -14 -6 1 -5 18 -5 18 -19 0 -13 -17 -13 -17 -14 5 0
12 -7 25 -15 28 -13 5 -13 8 0 21 19 18 9 39 -11 22 -8 -6 -14 -20 -14 -31 0
-10 -4 -16 -10 -13 -6 3 -7 -1 -4 -9 3 -9 9 -14 13 -11 4 2 7 -9 7 -26 0 -18
-4 -28 -11 -25 -6 2 -18 -6 -25 -17 -14 -22 -14 -22 -21 8 l-6 30 -12 -25
c-11 -24 -11 -23 -7 10 3 19 2 29 -1 22 -3 -9 -13 -5 -35 13 -16 14 -34 23
-39 20 -5 -4 -8 5 -7 19 1 15 6 26 11 26 4 0 5 5 2 10 -5 8 -11 7 -21 -1 -11
-9 -15 -7 -21 7 -4 10 -2 19 5 22 7 2 12 12 12 22 0 10 5 22 12 26 7 4 8 3 4
-4 -4 -7 -3 -12 2 -12 5 0 12 9 15 21 4 14 2 19 -7 16 -9 -4 -11 2 -8 19 2 13
8 22 11 19 4 -2 8 2 8 10 0 8 -4 15 -8 15 -5 0 -1 20 8 44 16 43 11 95 -6 67
-11 -17 -21 9 -21 56 0 26 5 36 19 40 11 3 21 17 25 34 3 17 12 29 21 29 9 0
13 5 10 10 -3 6 1 10 10 10 9 0 13 5 9 11 -4 8 1 9 16 4 14 -5 20 -3 16 3 -3
6 -1 16 6 24 14 14 16 64 4 76 -5 4 -7 0 -5 -8 2 -16 -17 -70 -26 -70 -2 0 0
11 5 24 5 13 9 33 8 43 0 10 3 27 7 38 l8 20 -17 -20 c-12 -15 -14 -15 -10 -4
3 10 1 20 -4 23 -6 3 -9 -7 -8 -25 1 -16 -2 -32 -6 -35 -5 -3 -8 -2 -7 3 3 18
-3 47 -8 36 -10 -27 -20 -11 -22 39 -1 29 -4 55 -7 57 -4 4 -8 -110 -6 -186 0
-28 -3 -42 -11 -40 -7 1 -11 -4 -9 -11 1 -8 -2 -11 -8 -7 -8 5 -8 11 0 20 8 9
6 14 -5 19 -11 4 -14 2 -9 -6 4 -6 3 -8 -3 -5 -7 4 -9 -10 -5 -41 2 -26 2 -44
-2 -41 -4 4 -8 22 -10 42 -2 19 -7 41 -11 49 -5 7 -5 10 0 6 10 -10 38 19 30
32 -3 5 -1 10 6 10 9 0 9 3 -1 15 -14 17 -21 65 -9 65 5 0 9 -7 9 -15 0 -8 3
-15 8 -15 4 0 7 28 8 63 1 34 -1 54 -3 45 -6 -25 -23 -23 -23 2 0 11 16 36 35
54 25 25 35 43 35 65 0 35 15 42 25 11 5 -17 9 -18 28 -7 12 7 25 16 28 20 4
5 11 -6 18 -24 6 -18 14 -29 17 -26 4 3 2 19 -4 36 -9 26 -7 33 14 57 15 16
25 37 24 53 -1 14 -2 32 -1 39 1 17 21 15 21 -3z m2300 -5 c0 -5 -2 -10 -4
-10 -3 0 -8 5 -11 10 -3 6 -1 10 4 10 6 0 11 -4 11 -10z m-2380 -39 c0 -5 -6
-14 -14 -20 -7 -6 -12 -22 -10 -36 1 -14 -2 -23 -7 -19 -12 7 -9 54 4 72 11
14 27 16 27 3z m280 -37 c0 -8 -5 -12 -10 -9 -6 4 -8 11 -5 16 9 14 15 11 15
-7z m-164 -141 c-11 -11 -19 6 -11 24 8 17 8 17 12 0 3 -10 2 -21 -1 -24z
m107 14 c-2 -4 -3 -22 -3 -39 l-1 -33 -14 25 c-20 35 -19 59 3 56 9 -2 16 -6
15 -9z m2527 -65 c0 -15 -2 -15 -10 -2 -13 20 -13 33 0 25 6 -3 10 -14 10 -23z
m-2550 -76 c0 -8 -4 -18 -10 -21 -5 -3 -10 3 -10 14 0 12 5 21 10 21 6 0 10
-6 10 -14z m-77 -11 c-3 -9 -8 -14 -10 -11 -3 3 -2 9 2 15 9 16 15 13 8 -4z
m-210 -55 c-3 -12 -8 -19 -11 -16 -5 6 5 36 12 36 2 0 2 -9 -1 -20z m-109 -35
c-20 -31 -22 -31 -19 -2 3 28 2 27 20 27 14 0 13 -3 -1 -25z m-212 -141 c2
-19 0 -38 -5 -41 -6 -3 -7 -1 -3 5 3 6 2 13 -2 16 -8 5 -5 56 3 56 2 0 5 -16
7 -36z m66 0 c4 2 6 -20 5 -50 -1 -30 3 -57 8 -60 6 -3 5 -12 -3 -22 -10 -12
-10 -14 0 -8 8 5 12 0 12 -18 0 -14 -4 -28 -10 -31 -5 -3 -10 3 -10 14 0 11
-5 23 -10 26 -6 4 -8 11 -4 16 3 6 3 17 0 26 -6 14 -9 13 -22 -5 -8 -12 -20
-20 -25 -16 -6 4 -5 12 4 22 8 10 18 36 21 60 6 49 17 73 24 54 2 -7 7 -10 10
-8z m190 -197 c2 -22 -1 -30 -17 -34 -12 -3 -21 -9 -21 -13 0 -5 -3 -16 -7
-26 -5 -13 -3 -15 7 -9 9 5 11 4 6 -4 -4 -6 -12 -9 -17 -6 -11 8 -12 52 -1 59
5 3 9 21 10 41 1 20 4 41 8 47 9 14 27 -18 32 -55z m-171 -40 c-6 -20 -27 -19
-27 2 0 14 5 19 15 14 9 -3 14 -10 12 -16z m136 -138 c5 -19 4 -19 -11 -6 -9
8 -24 12 -32 10 -8 -3 -6 1 5 10 23 18 31 15 38 -14z m105 -107 c2 -7 -1 -12
-8 -12 -6 0 -9 4 -6 9 4 5 1 12 -4 14 -6 3 -5 4 2 3 6 -1 14 -8 16 -14z m2965
-79 c3 -17 8 -38 12 -45 4 -7 -2 -2 -13 11 -11 14 -17 33 -14 48 6 30 9 27 15
-14z m225 -186 c3 -14 -3 -17 -27 -15 -31 2 -42 22 -18 31 21 10 42 2 45 -16z
m-3688 -128 c0 -5 -7 -9 -15 -9 -15 0 -20 12 -9 23 8 8 24 -1 24 -14z m98 -8
c2 -13 -1 -28 -7 -34 -15 -15 -41 10 -41 40 0 20 4 24 23 21 14 -2 23 -11 25
-27z m92 -151 c0 -5 -2 -10 -4 -10 -3 0 -8 5 -11 10 -3 6 -1 10 4 10 6 0 11
-4 11 -10z m3498 -43 c6 -5 12 -17 12 -28 0 -10 5 -19 11 -19 5 0 7 6 3 13 -6
9 -4 9 8 -1 9 -7 18 -22 21 -32 7 -27 -2 -25 -13 3 -7 17 -9 18 -9 5 -1 -10
-6 -18 -12 -18 -5 0 -8 4 -5 9 3 5 -1 14 -9 21 -8 7 -15 17 -15 23 0 5 -8 16
-17 23 -14 10 -15 12 -3 11 8 -2 21 -6 28 -10z m-3544 -14 c10 -10 36 -15 76
-15 20 0 40 -7 47 -17 18 -24 16 -34 -7 -28 -17 4 -20 2 -14 -15 5 -17 3 -19
-18 -13 -12 4 -33 17 -45 28 -13 11 -23 16 -23 11 0 -5 -5 -1 -11 9 -5 9 -16
17 -23 17 -7 0 -13 7 -13 15 0 15 18 20 31 8z m-53 -25 c3 -5 15 -10 27 -11
15 -1 18 -5 11 -13 -6 -8 -2 -11 18 -10 21 1 27 -4 28 -21 1 -19 -3 -23 -27
-23 -15 0 -28 5 -28 11 0 6 -6 9 -13 6 -8 -3 -19 -2 -26 2 -9 6 -7 11 5 22 16
13 17 12 10 -6 -6 -16 -5 -17 5 -8 17 17 -6 44 -29 36 -9 -3 -14 -3 -10 2 4 4
3 14 -4 22 -9 11 -7 12 8 6 10 -3 22 -10 25 -15z m-43 -33 c0 -14 -5 -28 -11
-32 -6 -3 -7 -1 -3 5 4 7 1 12 -8 12 -14 0 -14 3 2 19 9 11 18 20 18 20 1 1 2
-10 2 -24z m277 15 c3 -5 1 -10 -4 -10 -6 0 -11 5 -11 10 0 6 2 10 4 10 3 0 8
-4 11 -10z m3181 -192 c-8 -6 -7 -8 1 -8 8 0 11 -9 9 -22 -3 -13 -5 -34 -6
-48 -1 -21 -4 -19 -16 14 -8 22 -11 42 -6 45 4 3 8 16 9 29 1 35 4 38 12 17 5
-12 4 -23 -3 -27z m-2526 -229 c0 -4 -6 -9 -14 -12 -9 -4 -13 0 -11 11 2 9 4
22 4 27 1 10 21 -15 21 -26z m-16 -172 c-3 -32 -4 -35 -17 -40 -8 -3 -13 4
-13 19 0 13 5 24 11 24 5 0 3 5 -5 11 -12 8 -11 10 5 7 12 -2 19 -10 19 -21z
m-4 -237 c0 -4 -6 -10 -14 -13 -12 -5 -14 2 -7 31 2 7 21 -10 21 -18z m6 -44
c-1 -8 -7 -20 -14 -28 -6 -8 -8 -18 -4 -22 4 -4 3 -7 -3 -6 -22 5 -36 -1 -29
-12 4 -6 3 -8 -4 -5 -5 4 -9 15 -7 25 2 9 4 21 4 26 1 5 4 6 8 3 9 -10 44 24
36 36 -3 5 -1 7 5 4 5 -4 9 -13 8 -21z m2595 -45 c-6 -10 -7 -22 -3 -26 4 -5
2 -5 -5 -2 -13 8 -6 47 9 47 5 0 4 -8 -1 -19z m-261 -15 c0 -15 -19 -44 -21
-31 0 6 -2 17 -4 26 -1 9 4 16 11 16 8 0 14 -5 14 -11z m-2413 -75 c-9 -12 -9
-13 1 -7 8 5 12 0 13 -16 1 -21 2 -21 7 -3 4 11 13 21 21 23 12 3 12 0 2 -11
-6 -8 -10 -27 -7 -41 3 -14 0 -29 -6 -32 -7 -4 -8 -2 -4 4 5 8 -1 12 -16 13
-23 1 -23 1 2 9 25 8 25 8 -5 10 -16 1 -24 4 -17 7 6 2 12 9 12 14 0 6 -3 8
-7 6 -9 -5 -27 13 -30 29 -1 5 9 10 22 10 20 0 22 -2 12 -15z m2316 -88 c-5
-12 -3 -14 7 -8 9 6 11 4 5 -4 -5 -9 -11 -9 -17 -3 -6 6 -7 15 -4 21 11 17 16
13 9 -6z m-113 -367 c0 -2 -7 -7 -16 -10 -8 -3 -12 -2 -9 4 6 10 25 14 25 6z
m-1813 -98 c-3 -8 -6 -5 -6 6 -1 11 2 17 5 13 3 -3 4 -12 1 -19z m-23 -16 c-5
-59 -5 -58 -14 -37 -13 30 -12 57 3 53 6 -3 12 -10 11 -16z m76 -38 c0 -8 -4
-12 -10 -9 -5 3 -10 13 -10 21 0 8 5 12 10 9 6 -3 10 -13 10 -21z m875 17 c-3
-5 -1 -12 5 -16 5 -3 10 -11 10 -16 0 -6 -7 -3 -16 5 -8 9 -20 16 -25 16 -6 0
-7 5 -4 10 3 6 13 10 21 10 8 0 13 -4 9 -9z m775 -75 c-4 -12 -11 -20 -16 -19
-12 2 -25 43 -14 43 5 0 7 7 3 16 -5 14 -3 14 15 -1 15 -13 18 -24 12 -39z
m-1350 3 c0 -24 -22 -24 -43 -1 -21 23 -15 31 18 24 16 -3 25 -11 25 -23z
m-185 -9 c-4 -6 -2 -17 4 -23 9 -11 9 -27 2 -82 -1 -5 -6 -3 -11 5 -13 21 -12
60 1 60 8 0 8 4 -1 15 -10 13 -7 35 6 35 3 0 2 -5 -1 -10z m125 -40 c0 -5 -4
-10 -10 -10 -5 0 -10 5 -10 10 0 6 5 10 10 10 6 0 10 -4 10 -10z m55 0 c3 -5
-3 -10 -14 -10 -12 0 -21 5 -21 10 0 6 6 10 14 10 8 0 18 -4 21 -10z m359 -35
c3 -8 1 -15 -4 -15 -6 0 -10 7 -10 15 0 8 2 15 4 15 2 0 6 -7 10 -15z m-260
-21 c10 -25 7 -34 -10 -34 -8 0 -12 5 -9 10 3 6 -1 13 -9 16 -9 3 -13 10 -10
15 9 14 31 10 38 -7z m-333 -19 c11 4 19 2 19 -4 0 -6 -4 -11 -10 -11 -5 0 -9
-3 -9 -7 1 -5 1 -19 0 -33 -1 -22 -3 -23 -14 -9 -7 9 -17 14 -22 12 -6 -2 -11
6 -11 17 0 11 4 20 9 20 5 0 6 10 2 23 -5 19 -5 20 5 4 8 -12 18 -16 31 -12z
m116 3 c-3 -8 -6 -5 -6 6 -1 11 2 17 5 13 3 -3 4 -12 1 -19z m141 -52 c-2 -12
-10 -20 -17 -18 -18 4 -52 -28 -44 -41 3 -6 1 -7 -5 -3 -7 4 -12 19 -12 33 0
21 3 23 14 14 16 -13 20 -9 30 32 6 24 9 27 22 16 8 -7 14 -22 12 -33z m316
-2 c3 -8 2 -12 -4 -9 -6 3 -10 10 -10 16 0 14 7 11 14 -7z m-24 -34 c0 -5 -5
-10 -11 -10 -5 0 -7 5 -4 10 3 6 8 10 11 10 2 0 4 -4 4 -10z m290 -60 c6 -11
8 -20 6 -20 -3 0 -10 9 -16 20 -6 11 -8 20 -6 20 3 0 10 -9 16 -20z m669 6 c9
-10 8 -15 -4 -20 -10 -4 -15 1 -15 14 0 24 4 25 19 6z m-589 -53 c0 -45 -12
-36 -17 13 -2 23 0 33 7 29 5 -3 10 -22 10 -42z m-225 -4 c-4 -5 -2 -9 4 -9 6
0 8 -7 5 -15 -5 -11 -10 -13 -19 -5 -14 12 -8 53 6 44 5 -3 7 -10 4 -15z
m-157 -60 c-3 -8 -7 -3 -11 10 -4 17 -3 21 5 13 5 -5 8 -16 6 -23z m772 -9 c0
-5 -2 -10 -4 -10 -3 0 -8 5 -11 10 -3 6 -1 10 4 10 6 0 11 -4 11 -10z m57 -32
c-3 -7 -5 -2 -5 12 0 14 2 19 5 13 2 -7 2 -19 0 -25z m-26 -1 c-10 -9 -11 -8
-5 6 3 10 9 15 12 12 3 -3 0 -11 -7 -18z m-37 -3 c3 -9 2 -12 -5 -9 -6 4 -7
-3 -3 -21 4 -17 3 -25 -3 -21 -15 10 -22 56 -9 61 6 2 12 5 12 5 1 1 5 -6 8
-15z m90 -10 c3 -8 2 -12 -4 -9 -6 3 -10 10 -10 16 0 14 7 11 14 -7z m26 -9
c0 -14 7 -36 16 -49 9 -15 11 -27 5 -30 -5 -4 -13 3 -16 15 -6 19 -8 20 -26 4
-10 -10 -25 -15 -34 -12 -8 4 -15 1 -15 -6 0 -8 -4 -7 -10 3 -5 9 -5 19 1 26
6 8 4 14 -6 18 -9 3 -13 11 -10 17 5 6 12 3 22 -10 8 -12 25 -21 40 -21 24 0
25 3 20 35 -3 19 -2 35 4 35 5 0 9 -11 9 -25z m-184 -15 c0 -11 -4 -20 -8 -20
-4 0 -8 9 -8 20 0 11 4 20 8 20 4 0 8 -9 8 -20z m-781 -21 c11 -17 -1 -21 -15
-4 -8 9 -8 15 -2 15 6 0 14 -5 17 -11z m-168 -86 c-3 -10 -5 -4 -5 12 0 17 2
24 5 18 2 -7 2 -21 0 -30z m-445 -42 c2 -17 1 -28 -4 -25 -8 5 -12 54 -4 54 2
0 6 -13 8 -29z m495 7 c-3 -8 -6 -5 -6 6 -1 11 2 17 5 13 3 -3 4 -12 1 -19z
m65 -3 c8 -18 15 -22 27 -15 31 16 51 -13 36 -55 -5 -17 -14 -20 -59 -20 -31
1 -62 8 -76 18 -17 12 -28 13 -42 6 -10 -5 -18 -8 -19 -7 -1 2 -2 19 -4 38 -2
29 -1 32 9 17 10 -12 16 -13 24 -5 9 9 18 9 37 0 15 -7 25 -8 26 -2 1 6 3 15
4 20 1 6 3 15 4 20 2 19 21 10 33 -15z m-157 -5 c3 -6 -1 -7 -9 -4 -15 6 -21
-8 -17 -41 0 -5 -10 -11 -24 -11 -14 -1 -25 -1 -25 1 0 6 56 64 62 65 4 0 10
-4 13 -10z m-348 -87 c-11 -10 -26 8 -20 23 5 15 7 14 15 -1 6 -9 7 -19 5 -22z
m580 5 c-3 -8 -6 -5 -6 6 -1 11 2 17 5 13 3 -3 4 -12 1 -19z m50 8 c0 -8 -8
-17 -18 -19 -15 -4 -18 5 -10 31 3 9 28 -1 28 -12z m37 -1 c3 -9 0 -15 -9 -15
-16 0 -27 14 -18 24 10 10 21 7 27 -9z m-68 -86 c4 -8 9 -7 14 2 7 10 14 10
40 -1 36 -15 100 -20 116 -8 7 5 15 -1 21 -15 9 -19 8 -23 -8 -24 -10 -1 -25
-8 -32 -15 -12 -11 -11 -16 6 -34 25 -26 30 -54 11 -55 -27 -3 -32 -4 -40 -11
-4 -5 4 -8 19 -8 26 0 50 -19 25 -21 -7 0 -20 -2 -28 -4 -51 -13 -69 -14 -75
-5 -3 5 1 10 9 10 26 0 25 16 -1 18 -14 1 -32 7 -39 13 -7 6 -19 9 -26 6 -8
-4 -7 -6 5 -6 18 -1 25 -31 6 -31 -5 0 2 -16 17 -35 22 -29 29 -33 45 -24 13
6 19 6 19 -1 0 -5 -7 -10 -16 -10 -10 0 -14 -6 -10 -15 6 -17 -7 -19 -33 -6
-10 6 -44 12 -77 13 -33 2 -65 7 -71 11 -6 4 -14 -1 -17 -10 -4 -9 -1 -20 6
-25 10 -6 10 -8 -1 -8 -8 0 -11 -6 -7 -16 4 -11 2 -15 -8 -11 -8 3 -20 -1 -26
-9 -10 -11 -10 -14 0 -14 10 0 10 -3 0 -15 -7 -9 -19 -14 -26 -11 -15 6 -38
-19 -30 -33 3 -5 0 -11 -8 -14 -9 -4 -12 2 -10 19 1 13 -3 27 -8 31 -7 3 -8 1
-4 -5 8 -14 4 -15 -18 -6 -9 3 -13 10 -10 15 3 5 1 9 -4 9 -5 0 -12 9 -15 21
-3 12 -10 18 -16 14 -6 -3 -9 -10 -6 -15 10 -16 -36 -22 -53 -7 -9 8 -22 12
-29 10 -7 -2 -15 7 -19 21 -3 14 -10 26 -16 26 -5 0 -6 5 -3 10 15 24 -12 7
-29 -18 -21 -32 -52 -41 -36 -11 7 12 6 19 -5 22 -7 3 -16 1 -18 -6 -3 -7 -3
4 0 23 4 31 2 36 -16 37 -15 1 -21 -4 -21 -19 0 -18 2 -19 17 -7 15 13 15 12
4 -8 -12 -23 -41 -32 -41 -13 0 6 -6 9 -12 8 -7 -2 -13 6 -14 17 -2 45 -3 46
-24 35 -24 -13 -17 -32 8 -23 14 5 15 3 5 -7 -9 -10 -16 -10 -26 -2 -7 6 -28
10 -46 7 -26 -3 -30 -1 -21 10 8 9 8 15 0 20 -8 5 -8 11 -1 19 6 7 8 16 4 19
-3 4 -2 7 4 7 6 0 14 -8 17 -17 6 -15 8 -15 16 -3 8 14 33 19 97 20 13 0 24 9
28 20 6 20 7 20 25 -2 17 -21 19 -21 25 -6 4 10 11 15 16 12 5 -3 9 0 9 6 0 6
4 9 9 6 5 -4 8 2 7 11 -2 10 1 21 7 25 13 8 37 -15 37 -36 0 -29 18 -26 25 4
4 16 13 30 21 30 8 0 14 8 14 17 0 28 27 -17 32 -52 4 -26 5 -27 12 -10 4 11
14 34 21 50 12 25 14 27 14 9 1 -24 27 -39 37 -22 4 6 -1 17 -10 24 -13 9 -14
13 -4 17 18 6 50 -12 42 -24 -14 -23 22 -39 65 -30 2 1 -1 7 -6 14 -5 6 -7 22
-4 35 l6 23 23 -21 c12 -11 22 -18 22 -14 0 13 -51 54 -61 49 -5 -3 -6 1 -3
10 4 9 9 14 13 13 3 -2 18 -10 34 -17 15 -8 27 -18 27 -23 0 -4 5 -8 10 -8 6
0 10 8 8 18 -2 10 3 17 12 17 8 0 18 8 22 18 8 19 24 22 34 6z m-91 -27 c-8
-8 -25 10 -19 20 4 6 9 5 15 -3 4 -7 6 -15 4 -17z m-160 6 c14 -6 25 -15 25
-20 0 -5 -8 -4 -18 1 -14 7 -21 5 -32 -12 -8 -12 -13 -25 -12 -29 1 -5 -2 -8
-8 -8 -5 0 -10 7 -10 15 0 8 5 15 11 15 5 0 9 8 8 18 -3 36 -1 37 36 20z m75
-8 c0 -5 -5 -10 -11 -10 -5 0 -7 5 -4 10 3 6 8 10 11 10 2 0 4 -4 4 -10z
m-277 -10 c-11 -10 -63 -22 -63 -15 0 7 39 22 57 22 8 0 10 -4 6 -7z m286 -25
c5 2 6 -8 3 -23 -5 -24 -6 -24 -13 -7 -4 11 -8 27 -8 35 1 10 2 11 6 2 2 -6 8
-10 12 -7z m451 -84 c0 -13 -12 -20 -25 -14 -8 2 -11 11 -9 18 6 14 34 10 34
-4z m-1022 -65 c2 -10 -2 -23 -9 -30 -9 -8 -10 -8 -5 1 3 6 2 14 -4 18 -14 9
-12 37 3 33 6 -3 14 -13 15 -22z m872 -13 c0 -6 -5 -15 -12 -19 -7 -4 -8 -3
-4 4 5 8 -2 12 -21 12 -17 0 -23 3 -16 8 19 12 53 9 53 -5z m1189 -25 c0 -7
-4 -22 -9 -33 -7 -17 -9 -15 -9 13 -1 17 4 32 9 32 6 0 10 -6 9 -12z m-1759
-48 c0 -5 -5 -10 -11 -10 -5 0 -7 5 -4 10 3 6 8 10 11 10 2 0 4 -4 4 -10z
m367 -2 c2 6 12 12 21 11 11 0 13 -2 4 -6 -8 -3 -9 -9 -4 -16 5 -7 12 -21 16
-31 5 -15 4 -17 -8 -7 -7 6 -21 9 -30 5 -9 -3 -16 -1 -16 6 0 6 6 8 13 5 6 -4
4 0 -5 8 -10 8 -18 20 -18 28 0 11 2 11 11 -1 8 -11 12 -12 16 -2z m101 -46
c-7 -8 -14 -10 -21 -3 -7 7 -6 15 3 26 10 12 15 13 21 3 4 -7 3 -18 -3 -26z
m69 32 c-3 -3 -12 -4 -19 -1 -8 3 -5 6 6 6 11 1 17 -2 13 -5z m1187 -9 c3 -8
1 -15 -4 -15 -6 0 -10 7 -10 15 0 8 2 15 4 15 2 0 6 -7 10 -15z m-1132 -13
c-4 -11 -1 -14 11 -9 10 4 17 1 17 -6 0 -7 -10 -13 -23 -13 -15 0 -22 6 -23
21 -1 12 4 22 11 22 8 0 11 -7 7 -15z m78 -52 c0 -5 -4 -10 -9 -10 -6 0 -13 5
-16 10 -3 6 1 10 9 10 9 0 16 -4 16 -10z m-20 -39 c0 -6 -4 -11 -10 -11 -5 0
-10 4 -10 9 0 5 -3 18 -7 28 -6 17 -6 17 10 1 9 -9 17 -21 17 -27z m37 19 c2
-20 -8 -26 -20 -13 -4 3 -2 12 4 20 15 17 14 17 16 -7z m-249 -50 c7 -11 11
-20 9 -20 -2 0 -12 9 -22 20 -10 11 -14 20 -9 20 5 0 15 -9 22 -20z m272 -100
c0 -5 -2 -10 -4 -10 -3 0 -8 5 -11 10 -3 6 -1 10 4 10 6 0 11 -4 11 -10z m164
-236 c3 -8 2 -12 -4 -9 -6 3 -10 10 -10 16 0 14 7 11 14 -7z m-234 -764 c0 -5
-5 -10 -11 -10 -5 0 -7 5 -4 10 3 6 8 10 11 10 2 0 4 -4 4 -10z m996 -128
c-17 -16 -18 -16 -5 5 7 12 15 20 18 17 3 -2 -3 -12 -13 -22z m-166 -133 c0
-5 6 -7 13 -3 8 5 7 2 -2 -9 -8 -10 -16 -15 -19 -12 -10 10 -11 35 -1 35 5 0
9 -5 9 -11z"/>
<path d="M4425 6551 c-3 -5 -2 -12 3 -15 5 -3 9 1 9 9 0 17 -3 19 -12 6z"/>
<path d="M4515 6540 c-15 -17 -16 -20 -3 -20 9 0 19 7 22 16 10 25 1 27 -19 4z"/>
<path d="M4853 6545 c-3 -9 -3 -18 -1 -21 3 -3 8 4 11 16 6 23 -1 27 -10 5z"/>
<path d="M5057 6543 c-4 -3 -7 -11 -7 -17 0 -6 5 -5 12 2 6 6 9 14 7 17 -3 3
-9 2 -12 -2z"/>
<path d="M4463 6515 c-14 -10 -24 -12 -28 -5 -4 6 -12 5 -21 -5 -9 -8 -20 -12
-26 -9 -6 4 -9 1 -6 -6 2 -7 15 -20 29 -29 l24 -15 -20 23 c-11 12 -15 22 -10
21 33 -7 74 2 79 16 9 24 3 26 -21 9z"/>
<path d="M4677 6462 c-2 -11 -15 -22 -28 -25 -19 -3 -17 -5 9 -6 34 -1 54 21
35 40 -7 7 -12 4 -16 -9z"/>
<path d="M4926 6471 c-4 -7 -5 -15 -2 -18 9 -9 19 4 14 18 -4 11 -6 11 -12 0z"/>
<path d="M4460 6454 c0 -6 -10 -16 -22 -22 -19 -8 -14 -10 30 -8 29 2 51 7 50
12 -2 5 -11 7 -22 5 -10 -1 -23 3 -27 11 -5 7 -9 8 -9 2z"/>
<path d="M4645 6400 c-18 -20 -16 -38 3 -26 8 5 24 46 18 46 -2 0 -11 -9 -21
-20z"/>
<path d="M3980 6038 c0 -23 3 -29 9 -19 8 12 4 51 -5 51 -2 0 -4 -15 -4 -32z"/>
<path d="M4020 6015 c1 -26 2 -28 11 -12 8 14 8 22 0 30 -8 8 -11 3 -11 -18z"/>
<path d="M5938 5946 c-10 -7 -18 -19 -18 -27 0 -11 2 -11 10 1 8 12 10 12 10
1 0 -21 13 -4 15 19 1 11 1 20 1 20 -1 0 -9 -7 -18 -14z"/>
<path d="M3825 5909 c-4 -11 -4 -23 -1 -27 8 -7 36 30 30 40 -9 14 -23 8 -29
-13z"/>
<path d="M3900 5890 c0 -5 5 -10 11 -10 5 0 7 5 4 10 -3 6 -8 10 -11 10 -2 0
-4 -4 -4 -10z"/>
<path d="M3916 5847 c3 -10 9 -15 12 -12 3 3 0 11 -7 18 -10 9 -11 8 -5 -6z"/>
<path d="M3900 5744 c0 -12 4 -12 20 -4 11 6 20 12 20 13 0 2 -9 3 -20 4 -12
1 -20 -4 -20 -13z"/>
<path d="M4280 5741 c0 -11 5 -23 10 -26 6 -4 10 5 10 19 0 14 -4 26 -10 26
-5 0 -10 -9 -10 -19z"/>
<path d="M3842 5735 c4 -4 3 -14 -3 -21 -7 -9 -6 -14 3 -20 7 -4 10 -4 6 1 -4
4 -3 14 3 21 7 9 6 14 -3 20 -7 4 -10 4 -6 -1z"/>
<path d="M3873 5686 c6 -15 3 -17 -18 -12 -19 5 -25 2 -25 -9 0 -10 5 -13 13
-9 9 6 9 4 -1 -8 -9 -11 -10 -18 -2 -23 13 -8 42 14 35 26 -3 4 1 11 9 16 12
7 12 10 -2 23 -14 13 -15 12 -9 -4z"/>
<path d="M3950 5666 c0 -2 7 -7 16 -10 8 -3 12 -2 9 4 -6 10 -25 14 -25 6z"/>
<path d="M3885 5650 c3 -5 8 -10 11 -10 2 0 4 5 4 10 0 6 -5 10 -11 10 -5 0
-7 -4 -4 -10z"/>
<path d="M6334 5638 c-10 -16 -11 -67 -1 -61 4 2 7 17 7 33 0 22 4 28 15 24 8
-4 15 -4 15 -1 0 11 -30 15 -36 5z"/>
<path d="M4282 5595 c0 -16 2 -22 5 -12 2 9 2 23 0 30 -3 6 -5 -1 -5 -18z"/>
<path d="M4270 5545 c0 -8 2 -15 4 -15 2 0 6 7 10 15 3 8 1 15 -4 15 -6 0 -10
-7 -10 -15z"/>
<path d="M4102 5530 c0 -14 2 -19 5 -12 2 6 2 18 0 25 -3 6 -5 1 -5 -13z"/>
<path d="M4267 5514 c-4 -4 -7 -14 -7 -23 0 -11 3 -12 11 -4 6 6 10 16 7 23
-2 6 -7 8 -11 4z"/>
<path d="M4242 5306 c2 -48 7 -71 17 -74 11 -4 12 8 6 59 -10 91 -27 101 -23
15z"/>
<path d="M5199 5249 c-11 -7 -11 -9 4 -9 9 0 17 -4 17 -10 0 -5 -9 -10 -20
-10 -11 0 -20 -4 -20 -8 0 -4 -14 -9 -32 -10 -18 -2 -35 -7 -39 -13 -4 -8 -9
-8 -14 1 -4 6 -18 15 -32 21 -19 7 -28 5 -41 -9 -10 -10 -14 -13 -10 -7 4 6
-3 10 -15 10 -12 1 -35 4 -52 8 -19 5 -25 4 -16 -2 21 -14 2 -34 -25 -27 -18
5 -24 2 -24 -9 0 -9 -5 -13 -10 -10 -6 4 -7 12 -3 18 4 7 -2 5 -12 -3 -17 -14
-18 -13 -13 7 4 13 0 27 -8 34 -12 10 -13 9 -8 -5 7 -18 -3 -21 -26 -6 -10 6
-20 3 -33 -11 -22 -23 -37 -18 -17 6 7 9 10 19 6 23 -4 4 -13 0 -19 -8 -7 -8
-24 -23 -38 -32 -20 -13 -26 -13 -26 -3 0 8 6 16 14 19 24 10 13 26 -17 26
-21 0 -30 -5 -30 -16 0 -9 5 -12 12 -8 7 4 8 3 4 -5 -4 -6 -12 -8 -18 -5 -7 5
-9 2 -6 -8 11 -27 -41 -55 -108 -60 -53 -3 -60 -2 -59 14 1 10 4 21 8 24 13
13 7 23 -13 21 -12 -1 -20 -8 -20 -19 0 -10 -5 -18 -11 -18 -7 0 -9 -10 -7
-25 4 -21 3 -23 -13 -14 -11 5 -19 16 -19 23 0 8 -8 20 -17 27 -16 13 -17 12
-4 -3 11 -15 11 -18 0 -18 -11 0 -11 -2 1 -10 8 -5 10 -10 4 -10 -6 0 -18 10
-27 23 -23 34 -29 15 -8 -26 12 -24 15 -39 8 -46 -7 -7 -2 -8 14 -4 23 5 23 5
4 -10 -11 -8 -23 -13 -27 -11 -13 8 -9 -11 7 -32 13 -17 14 -17 15 -1 0 9 3
17 6 17 9 0 43 -44 44 -56 0 -7 7 -15 16 -18 8 -3 12 -2 9 4 -8 13 -3 13 31
-3 32 -13 43 -37 18 -37 -14 0 -14 -1 0 -16 9 -8 13 -21 9 -27 -3 -7 -2 -9 2
-4 5 4 17 -5 27 -20 10 -16 18 -22 18 -15 0 10 5 10 20 2 11 -6 21 -7 21 -3 1
4 2 14 3 20 1 14 21 18 21 6 0 -5 4 -13 8 -20 4 -6 3 -14 -3 -18 -7 -4 -7 -13
1 -26 8 -15 7 -24 -3 -36 -7 -9 -12 -19 -11 -22 1 -3 -8 -5 -21 -4 -17 1 -27
-8 -39 -35 -11 -25 -13 -40 -6 -48 6 -8 6 -14 0 -18 -5 -3 -7 -15 -4 -26 6
-23 -15 -28 -23 -5 -4 8 -10 12 -16 9 -5 -3 -2 -14 7 -24 10 -11 14 -24 9 -31
-5 -9 -2 -10 10 -6 10 4 21 7 26 7 5 0 16 7 25 16 11 11 20 13 26 7 7 -7 -2
-21 -29 -43 -24 -19 -39 -39 -37 -48 2 -10 4 -19 4 -21 1 -2 8 3 18 10 15 13
16 10 9 -26 l-7 -40 21 34 c29 47 41 56 73 58 33 2 34 -6 2 -54 -54 -84 -56
-86 -68 -69 -10 12 -16 10 -42 -17 -16 -17 -24 -28 -17 -23 7 4 12 2 12 -4 0
-6 5 -8 10 -5 6 4 7 11 4 17 -5 7 -2 8 5 4 7 -5 10 -11 7 -14 -3 -3 2 -14 11
-25 10 -11 13 -18 7 -14 -6 3 -11 0 -11 -8 0 -8 4 -15 9 -15 15 0 21 32 10 51
-10 15 -9 17 4 12 8 -3 14 -2 13 3 -4 21 2 35 11 29 5 -3 15 7 22 22 16 37 38
63 55 63 17 0 17 -15 0 -32 -7 -7 -14 -17 -16 -23 -1 -5 -9 -9 -17 -9 -8 1
-14 -5 -14 -13 0 -8 5 -11 10 -8 6 3 10 -1 10 -10 0 -9 5 -13 11 -10 6 4 8 9
5 12 -7 8 9 27 68 78 25 22 51 36 33 18 -4 -3 -1 -13 6 -22 10 -14 10 -14 -5
-3 -10 8 -19 9 -22 3 -3 -5 0 -12 6 -14 10 -4 10 -6 0 -6 -7 -1 -10 -6 -7 -12
4 -6 18 2 35 20 18 18 30 25 33 17 7 -17 55 -13 78 7 10 9 19 13 19 8 0 -9 27
-22 56 -27 18 -3 31 9 38 36 3 14 3 19 0 13 -8 -19 -24 -16 -24 5 0 14 -2 15
-9 2 -6 -8 -7 -19 -3 -25 3 -5 -1 -4 -10 3 -17 14 -18 36 -2 51 5 5 51 11 102
13 66 2 95 7 101 17 5 8 23 14 40 14 17 0 31 4 31 9 0 23 63 46 122 43 63 -2
101 16 79 38 -6 6 -11 17 -11 25 0 16 -77 92 -85 84 -2 -3 1 -12 8 -20 6 -9
-6 -4 -28 11 -22 15 -53 27 -71 27 -18 0 -34 5 -36 10 -2 6 -38 11 -81 12 -76
2 -105 12 -73 24 9 3 13 11 9 17 -4 6 -1 7 6 2 7 -4 54 -9 104 -10 51 -2 106
-6 122 -10 17 -3 40 -8 52 -11 12 -2 28 -10 35 -17 20 -17 50 -37 69 -43 9 -3
31 -35 49 -70 17 -35 36 -64 41 -64 5 0 22 -14 38 -32 32 -36 52 -24 22 13
-34 44 -61 99 -55 114 14 37 -161 128 -286 149 -91 16 -216 23 -226 14 -3 -4
-19 -2 -37 3 -37 11 -61 31 -29 24 12 -2 22 0 22 4 0 12 55 24 116 26 28 1 55
4 60 7 5 3 23 4 39 3 17 -1 49 -3 73 -3 26 -1 41 -6 37 -12 -8 -13 26 -13 61
1 31 11 78 4 69 -11 -3 -5 -13 -6 -22 -3 -10 4 -14 2 -10 -5 8 -12 91 -10 121
3 14 6 17 5 12 -4 -6 -8 0 -10 18 -6 14 3 37 7 50 10 14 3 28 1 31 -5 3 -5 13
-10 21 -10 8 0 13 4 10 9 -4 5 3 7 14 4 23 -6 25 -14 8 -33 -11 -12 -10 -12 3
-2 9 6 19 9 23 5 4 -4 4 0 1 9 -5 13 -2 16 14 13 14 -2 21 1 21 11 0 8 4 13 9
9 6 -3 8 4 6 15 -5 28 -15 41 -25 35 -5 -3 -12 0 -16 6 -4 7 -3 9 3 6 6 -4 13
1 15 11 7 24 4 37 -5 34 -5 -1 -6 2 -2 8 4 6 -4 9 -22 8 -15 -2 -30 2 -33 7
-9 20 -34 44 -41 40 -4 -3 -9 2 -13 10 -3 8 -1 15 4 15 6 0 10 5 10 12 0 6 -3
9 -6 5 -3 -3 -17 6 -31 21 l-25 27 21 -29 c15 -20 18 -32 10 -36 -6 -4 -10
-10 -9 -14 1 -4 -1 -12 -4 -19 -3 -6 -4 -3 -3 8 1 15 -3 19 -17 17 -10 -2 -15
1 -11 7 3 6 0 9 -8 5 -18 -7 -41 22 -33 42 5 14 1 15 -29 10 -22 -4 -35 -3
-35 3 0 6 -18 23 -41 38 -33 22 -42 24 -49 13 -6 -9 -4 -17 3 -22 7 -5 8 -8 1
-8 -6 0 -21 11 -34 25 -22 23 -40 25 -40 4 0 -6 5 -7 12 -3 6 4 8 3 4 -4 -6
-11 -56 0 -81 18 -21 14 -42 18 -56 9z m-234 -59 c3 -5 1 -10 -4 -10 -6 0 -11
5 -11 10 0 6 2 10 4 10 3 0 8 -4 11 -10z m459 -12 c-3 -4 -9 -8 -15 -8 -5 0
-9 4 -9 8 0 5 7 9 15 9 8 0 12 -4 9 -9z m250 -129 c-3 -5 -10 -7 -15 -3 -5 3
-7 10 -3 15 3 5 10 7 15 3 5 -3 7 -10 3 -15z m-1294 -3 c0 -2 -7 -7 -16 -10
-8 -3 -12 -2 -9 4 6 10 25 14 25 6z m1000 -75 c0 -5 9 -7 20 -4 26 7 26 -3 0
-17 -23 -12 -90 -3 -90 12 0 5 4 7 9 3 5 -3 12 -1 16 5 8 12 45 13 45 1z
m-435 -84 c23 -17 8 -26 -25 -16 -14 4 -19 7 -12 8 7 1 10 6 7 11 -9 14 8 12
30 -3z m-375 -27 c9 -16 8 -18 -5 -14 -8 4 -15 10 -15 15 0 5 -5 9 -11 9 -5 0
-7 -5 -3 -12 4 -7 3 -8 -5 -4 -6 4 -9 12 -6 17 10 16 34 10 45 -11z m285 0 c3
-5 -1 -10 -9 -10 -9 0 -16 5 -16 10 0 6 4 10 9 10 6 0 13 -4 16 -10z m-107
-40 c23 0 12 -30 -14 -36 -14 -4 -29 -17 -34 -30 -5 -13 -19 -30 -32 -38 -25
-16 -80 -29 -75 -18 21 46 33 62 42 58 7 -2 12 2 12 10 0 7 -5 10 -11 7 -6 -4
-5 0 1 8 8 10 23 14 43 11 29 -4 30 -3 23 29 -6 33 -6 34 14 17 11 -10 25 -18
31 -18z m406 -125 c-3 -7 -1 -16 5 -20 18 -10 12 -25 -9 -25 -20 0 -38 40 -26
59 9 14 36 2 30 -14z m-94 5 c0 -5 -7 -10 -16 -10 -8 0 -12 5 -9 10 3 6 10 10
16 10 5 0 9 -4 9 -10z m-350 -15 c0 -9 -6 -12 -16 -8 -13 5 -13 7 -2 14 17 11
18 11 18 -6z m587 -38 c1 -11 1 -18 0 -16 -2 2 -8 11 -15 20 -9 12 -9 16 1 16
7 0 14 -9 14 -20z m-723 -5 c3 -5 -1 -9 -9 -9 -8 0 -12 4 -9 9 3 4 7 8 9 8 2
0 6 -4 9 -8z m703 -17 c0 -8 -4 -12 -9 -9 -5 3 -6 10 -3 15 9 13 12 11 12 -6z"/>
<path d="M5367 5245 c-4 -8 -2 -17 3 -20 6 -4 10 -4 10 -1 0 2 3 11 6 20 3 9
2 16 -4 16 -5 0 -12 -7 -15 -15z"/>
<path d="M4715 5240 c-3 -5 -1 -10 4 -10 6 0 11 5 11 10 0 6 -2 10 -4 10 -3 0
-8 -4 -11 -10z"/>
<path d="M4770 5236 c0 -2 9 -6 20 -9 11 -3 18 -1 14 4 -5 9 -34 13 -34 5z"/>
<path d="M4330 5205 c13 -14 26 -25 28 -25 3 0 -5 11 -18 25 -13 14 -26 25
-28 25 -3 0 5 -11 18 -25z"/>
<path d="M4245 5159 c8 -23 15 -52 15 -65 0 -23 1 -24 23 -9 13 8 28 12 32 8
5 -5 3 0 -4 10 -7 9 -10 17 -6 17 4 0 2 7 -5 15 -7 8 -10 15 -6 15 3 0 -4 11
-16 25 -35 40 -50 33 -33 -16z"/>
<path d="M5688 5115 c-4 -20 -1 -26 19 -31 16 -4 22 -12 19 -21 -4 -8 -1 -11
5 -8 6 4 8 14 4 23 -3 8 0 19 7 23 15 10 3 24 -28 33 -17 5 -22 2 -26 -19z"/>
<path d="M5773 5069 c2 -13 9 -25 15 -27 17 -5 15 17 -3 34 -13 14 -15 13 -12
-7z"/>
<path d="M4231 5060 c-1 -14 8 -43 19 -65 14 -27 20 -33 20 -19 0 11 -5 25
-11 31 -6 6 -15 26 -19 45 -7 28 -8 29 -9 8z"/>
<path d="M4281 4994 c0 -11 3 -14 6 -6 3 7 2 16 -1 19 -3 4 -6 -2 -5 -13z"/>
<path d="M5770 4998 c0 -6 3 -8 7 -5 3 4 13 1 22 -6 14 -11 14 -10 2 6 -15 20
-31 22 -31 5z"/>
<path d="M5516 4878 c3 -5 10 -6 15 -3 13 9 11 12 -6 12 -8 0 -12 -4 -9 -9z"/>
<path d="M5635 4849 c-4 -6 -5 -12 -2 -15 2 -3 7 2 10 11 7 17 1 20 -8 4z"/>
<path d="M5671 4844 c0 -11 3 -14 6 -6 3 7 2 16 -1 19 -3 4 -6 -2 -5 -13z"/>
<path d="M5615 4810 c-16 -7 -17 -9 -3 -9 9 -1 20 4 23 9 7 11 7 11 -20 0z"/>
<path d="M4455 4600 c-3 -5 -1 -10 4 -10 6 0 11 5 11 10 0 6 -2 10 -4 10 -3 0
-8 -4 -11 -10z"/>
<path d="M5027 4463 c-4 -3 -7 -11 -7 -17 0 -6 5 -5 12 2 6 6 9 14 7 17 -3 3
-9 2 -12 -2z"/>
<path d="M4592 4440 c-7 -11 -12 -25 -12 -32 1 -7 8 0 16 15 18 33 14 46 -4
17z"/>
<path d="M4710 4385 c-7 -8 -9 -15 -6 -15 4 0 14 7 22 15 9 8 11 15 6 15 -5 0
-15 -7 -22 -15z"/>
<path d="M4845 4380 c3 -5 8 -10 11 -10 2 0 4 5 4 10 0 6 -5 10 -11 10 -5 0
-7 -4 -4 -10z"/>
<path d="M4625 4330 c-19 -37 -19 -71 0 -96 15 -18 16 -17 10 12 -3 17 -2 49
4 72 11 50 7 53 -14 12z"/>
<path d="M3966 4043 c-6 -14 -5 -15 5 -6 7 7 10 15 7 18 -3 3 -9 -2 -12 -12z"/>
<path d="M6476 3803 c-6 -14 -5 -15 5 -6 7 7 10 15 7 18 -3 3 -9 -2 -12 -12z"/>
<path d="M6451 3774 c0 -11 3 -14 6 -6 3 7 2 16 -1 19 -3 4 -6 -2 -5 -13z"/>
<path d="M6324 3475 c-3 -8 -4 -20 -2 -27 3 -7 7 -1 10 15 6 29 1 36 -8 12z"/>
<path d="M6270 3366 c0 -8 4 -17 9 -20 5 -4 7 3 4 14 -6 23 -13 26 -13 6z"/>
<path d="M4730 3341 c0 -11 5 -23 10 -26 6 -3 10 3 10 14 0 11 -4 23 -10 26
-5 3 -10 -3 -10 -14z"/>
<path d="M4905 3318 c10 -31 25 -47 25 -26 0 24 -11 48 -22 48 -5 0 -6 -10 -3
-22z"/>
<path d="M4095 3279 c-4 -6 -5 -12 -2 -15 2 -3 7 2 10 11 7 17 1 20 -8 4z"/>
<path d="M5065 3079 c-4 -6 -5 -12 -2 -15 2 -3 7 2 10 11 7 17 1 20 -8 4z"/>
<path d="M4637 3034 c-3 -3 -25 -10 -48 -15 -93 -21 -209 -91 -209 -126 0 -18
94 -10 115 10 20 21 42 12 61 -26 12 -23 18 -27 25 -16 4 8 12 14 16 15 24 2
43 18 43 35 0 10 5 19 11 19 5 0 7 -5 3 -12 -4 -6 -3 -8 4 -5 5 4 8 16 5 27
-4 16 -2 19 12 14 21 -9 37 14 25 37 -11 20 -56 50 -63 43z"/>
<path d="M4025 3000 c-4 -6 -10 -8 -14 -6 -4 3 -8 -1 -8 -9 0 -13 4 -12 19 2
18 16 22 23 14 23 -3 0 -8 -5 -11 -10z"/>
<path d="M4781 2934 c0 -11 3 -14 6 -6 3 7 2 16 -1 19 -3 4 -6 -2 -5 -13z"/>
<path d="M5238 2805 c2 -18 10 -36 17 -38 9 -4 10 2 0 29 -16 46 -22 50 -17 9z"/>
<path d="M4385 2800 c3 -5 8 -10 11 -10 2 0 4 5 4 10 0 6 -5 10 -11 10 -5 0
-7 -4 -4 -10z"/>
<path d="M6015 2781 c-3 -5 -2 -12 3 -15 5 -3 9 1 9 9 0 17 -3 19 -12 6z"/>
<path d="M5897 2759 c7 -7 15 -10 18 -7 3 3 -2 9 -12 12 -14 6 -15 5 -6 -5z"/>
<path d="M4763 2697 c2 -7 12 -14 21 -15 11 -3 17 1 14 9 -2 7 -12 13 -22 15
-9 1 -15 -3 -13 -9z"/>
<path d="M4866 2691 c-12 -13 -14 -21 -6 -26 5 -3 7 -12 4 -18 -4 -7 -3 -8 2
-4 5 5 9 12 10 15 0 4 4 15 9 25 11 26 1 30 -19 8z"/>
<path d="M4916 2595 c-9 -26 -7 -32 5 -12 6 10 9 21 6 23 -2 3 -7 -2 -11 -11z"/>
<path d="M5375 2571 c-3 -5 -1 -12 5 -16 5 -3 10 1 10 9 0 18 -6 21 -15 7z"/>
<path d="M5201 2554 c0 -11 3 -14 6 -6 3 7 2 16 -1 19 -3 4 -6 -2 -5 -13z"/>
<path d="M5396 2541 c-3 -5 3 -11 13 -14 14 -3 18 -1 14 9 -6 16 -19 18 -27 5z"/>
<path d="M5205 2500 c-3 -5 -1 -10 4 -10 6 0 11 5 11 10 0 6 -2 10 -4 10 -3 0
-8 -4 -11 -10z"/>
<path d="M5757 2309 c4 -13 8 -18 11 -10 2 7 -1 18 -6 23 -8 8 -9 4 -5 -13z"/>
<path d="M5784 2299 c-3 -6 -1 -16 5 -22 6 -6 11 -8 11 -4 0 4 10 3 23 -3 21
-11 21 -10 3 4 -10 9 -24 13 -29 9 -6 -4 -8 0 -4 10 7 19 2 23 -9 6z"/>
<path d="M3528 5728 c9 -9 9 -15 -1 -27 -11 -14 -10 -14 6 -2 13 10 15 17 6
27 -6 8 -14 14 -17 14 -3 0 -1 -5 6 -12z"/>
<path d="M3620 5706 c0 -2 7 -7 16 -10 8 -3 12 -2 9 4 -6 10 -25 14 -25 6z"/>
<path d="M3631 5594 c0 -11 3 -14 6 -6 3 7 2 16 -1 19 -3 4 -6 -2 -5 -13z"/>
<path d="M3562 5508 c-15 -15 -16 -45 -2 -53 6 -3 11 -3 11 2 5 35 7 63 5 63
-1 0 -7 -5 -14 -12z"/>
<path d="M3515 5455 c0 -23 14 -33 28 -19 6 6 -14 44 -23 44 -3 0 -5 -11 -5
-25z"/>
<path d="M3559 5438 c-7 -25 -7 -48 1 -48 5 0 9 11 8 25 -2 21 -6 32 -9 23z"/>
<path d="M3528 5346 c-3 -14 -1 -31 3 -38 6 -8 9 1 9 25 0 42 -6 48 -12 13z"/>
<path d="M3646 5327 c3 -10 9 -15 12 -12 3 3 0 11 -7 18 -10 9 -11 8 -5 -6z"/>
<path d="M3647 5268 c7 -46 13 -48 13 -5 0 21 -4 37 -9 37 -5 0 -7 -15 -4 -32z"/>
<path d="M3610 5275 c-7 -9 -11 -17 -9 -20 3 -2 10 5 17 15 14 24 10 26 -8 5z"/>
<path d="M3576 5263 c-4 -5 -12 -8 -17 -8 -5 0 -9 -3 -9 -7 0 -5 0 -13 0 -19
0 -8 4 -8 15 1 12 10 13 7 5 -18 -6 -23 -5 -32 6 -36 7 -3 17 0 21 7 13 21 10
56 -4 61 -8 3 -11 10 -8 16 7 12 2 13 -9 3z"/>
<path d="M3642 5205 c1 -42 -3 -51 -24 -60 -13 -6 -22 -17 -20 -24 2 -9 -3
-11 -15 -7 -9 4 -14 4 -10 0 4 -4 1 -14 -6 -23 -11 -14 -10 -14 6 -2 15 12 17
11 17 -2 0 -26 16 -28 41 -7 13 11 20 19 15 20 -5 0 -17 -7 -26 -15 -14 -13
-16 -11 -15 18 1 34 24 45 38 17 5 -10 6 -8 3 7 -2 12 2 30 10 40 7 10 13 25
14 33 0 13 -2 13 -9 1 -7 -11 -10 -10 -14 5 -5 18 -6 18 -5 -1z"/>
<path d="M3575 5149 c-4 -6 -5 -12 -2 -15 2 -3 7 2 10 11 7 17 1 20 -8 4z"/>
<path d="M6525 4091 c-3 -5 -2 -12 3 -15 5 -3 9 1 9 9 0 17 -3 19 -12 6z"/>
<path d="M4890 1806 c13 -15 30 -24 37 -22 7 3 13 1 13 -4 0 -6 5 -10 11 -10
8 0 8 4 -1 14 -6 8 -18 12 -26 9 -8 -3 -14 0 -14 6 0 5 -10 16 -22 22 -22 11
-22 11 2 -15z"/>
<path d="M5040 1766 c0 -9 5 -16 10 -16 6 0 10 4 10 9 0 6 -4 13 -10 16 -5 3
-10 -1 -10 -9z"/>
<path d="M4640 1730 c13 -23 20 -26 20 -6 0 8 -7 16 -15 20 -13 4 -14 2 -5
-14z"/>
<path d="M4710 1663 c1 -11 70 -44 70 -34 0 5 -14 17 -32 25 -36 18 -38 19
-38 9z"/>
<path d="M4693 1539 c-9 -23 -8 -31 5 -41 10 -8 13 -9 9 -1 -4 6 -2 13 5 15
15 5 18 46 3 52 -6 2 -16 -9 -22 -25z"/>
<path d="M970 6073 c0 -23 5 -45 10 -48 13 -8 13 55 0 75 -7 11 -10 4 -10 -27z"/>
<path d="M7180 4957 c-21 -11 -25 -19 -22 -52 2 -22 9 -46 14 -53 12 -14 14
-94 4 -207 -7 -73 -38 -172 -72 -230 -13 -23 -25 -125 -14 -125 4 0 15 19 25
43 10 23 24 56 31 74 8 17 14 37 14 45 0 11 18 52 53 123 6 11 12 38 15 60 2
22 8 42 13 43 5 2 7 7 4 12 -3 5 4 12 15 15 19 6 21 14 19 88 -2 88 -25 159
-54 171 -20 7 -15 8 -45 -7z"/>
<path d="M6800 4531 c-7 -13 -7 -22 0 -26 5 -3 10 -3 11 2 0 4 2 16 4 26 4 22
-2 22 -15 -2z"/>
<path d="M6801 4184 c-1 -6 7 -18 17 -25 9 -7 14 -9 10 -5 -4 5 -2 16 5 25 10
14 10 14 -5 3 -13 -10 -17 -10 -21 0 -3 8 -6 8 -6 2z"/>
<path d="M6225 1461 c-3 -5 -2 -12 3 -15 5 -3 9 1 9 9 0 17 -3 19 -12 6z"/>
<path d="M6023 1153 c-3 -7 -8 -11 -12 -9 -4 3 -7 -4 -7 -15 0 -18 2 -18 11
-5 8 10 15 12 23 6 7 -6 10 -7 7 -4 -2 4 0 14 5 24 7 12 5 17 -6 17 -9 0 -18
-6 -21 -14z"/>
<path d="M5863 937 c-4 -6 -1 -7 7 -2 10 6 12 4 7 -8 -4 -12 -1 -15 14 -12 15
3 19 0 15 -10 -3 -8 -2 -16 2 -19 4 -3 8 3 9 12 1 10 3 23 5 31 4 17 -49 24
-59 8z"/>
<path d="M6491 832 c0 -7 -5 -10 -11 -7 -5 3 -10 1 -10 -5 0 -6 -6 -8 -12 -4
-7 4 -5 -1 4 -12 21 -21 43 -8 35 22 -3 11 -5 13 -6 6z"/>
<path d="M6313 503 c-4 -10 -11 -21 -17 -25 -7 -5 -7 -8 2 -8 10 0 10 -3 0
-14 -7 -8 -17 -11 -22 -8 -5 3 -6 -1 -1 -7 11 -19 48 21 50 53 1 30 -3 33 -12
9z"/>
<path d="M6060 321 c-6 -22 -15 -43 -20 -46 -15 -9 -2 -25 15 -19 8 4 12 10 9
15 -3 5 -1 9 4 9 6 0 13 7 16 16 4 10 2 13 -6 8 -7 -5 -8 -3 -2 7 12 20 14 38
4 44 -5 3 -14 -12 -20 -34z"/>
<path d="M5175 309 c-4 -6 -5 -12 -2 -15 2 -3 7 2 10 11 7 17 1 20 -8 4z"/>
<path d="M5313 265 c0 -8 4 -12 9 -9 5 3 6 10 3 15 -9 13 -12 11 -12 -6z"/>
<path d="M5053 238 c-3 -7 -1 -8 5 -4 7 4 12 1 12 -6 0 -10 2 -10 9 1 6 9 10
10 14 2 4 -8 5 -8 3 0 -3 16 -34 20 -43 7z"/>
<path d="M5030 205 c-6 -8 -10 -19 -8 -24 1 -6 8 1 15 14 13 28 11 31 -7 10z"/>
<path d="M6071 164 c0 -11 3 -14 6 -6 3 7 2 16 -1 19 -3 4 -6 -2 -5 -13z"/>
<path d="M5246 151 c-12 -13 -14 -21 -6 -26 6 -4 9 -1 8 7 -2 7 2 12 8 11 6
-1 11 5 11 13 0 18 0 18 -21 -5z"/>
<path d="M5816 58 c3 -5 10 -6 15 -3 13 9 11 12 -6 12 -8 0 -12 -4 -9 -9z"/>
<path d="M4944 25 c0 -24 1 -24 20 -7 16 14 18 14 14 2 -4 -12 2 -16 22 -18
24 -2 27 1 23 18 -5 19 -6 20 -20 3 -13 -16 -14 -17 -9 -1 6 20 -9 34 -19 18
-5 -8 -11 -8 -19 -1 -9 7 -12 4 -12 -14z"/>
<path d="M4916 32 c-2 -4 -1 -14 4 -22 7 -11 9 -9 7 8 -1 24 -3 26 -11 14z"/>
<path d="M5124 18 c-4 -7 -4 -10 1 -6 4 4 15 2 24 -5 14 -11 14 -10 2 6 -16
20 -18 21 -27 5z"/>
</g>
</svg>
